<?xml version="1.0" encoding="UTF-8"?>
<svg id="Layer_1" data-name="Layer 1" xmlns="http://www.w3.org/2000/svg" xmlns:xlink="http://www.w3.org/1999/xlink" version="1.1" viewBox="0 0 98 80">
  <defs>
    <style>
      .cls-1 {
        fill: url(#linear-gradient);
      }

      .cls-1, .cls-2, .cls-3, .cls-4, .cls-5, .cls-6 {
        stroke-width: 0px;
      }

      .cls-2 {
        fill: #26778e;
      }

      .cls-3 {
        fill: #f79734;
      }

      .cls-4 {
        fill: #49a9c5;
      }

      .cls-5 {
        fill: #30b7ad;
      }

      .cls-6 {
        fill: #fff;
      }
    </style>
    <linearGradient id="linear-gradient" x1="29.1" y1="60.8" x2="69.3" y2="20.6" gradientTransform="translate(0 80.6) scale(1 -1)" gradientUnits="userSpaceOnUse">
      <stop offset="0" stop-color="#052538"/>
      <stop offset="1" stop-color="#26778e"/>
    </linearGradient>
  </defs>
  <path class="cls-6" d="M49.1,76.7c20.3,0,36.7-16.4,36.7-36.7S69.3,3.3,49.1,3.3,12.3,19.7,12.3,40s16.4,36.7,36.7,36.7Z"/>
  <path class="cls-6" d="M49.1,79.1c-21.6,0-39.1-17.5-39.1-39.1S27.5.9,49.1.9s39.1,17.5,39.1,39.1-17.5,39.1-39.1,39.1ZM49.1,5.6c-19,0-34.4,15.4-34.4,34.4s15.4,34.4,34.4,34.4,34.4-15.4,34.4-34.4S68,5.6,49.1,5.6Z"/>
  <path class="cls-6" d="M49.1,76.7c20.3,0,36.7-16.4,36.7-36.7S69.3,3.3,49.1,3.3,12.3,19.7,12.3,40s16.4,36.7,36.7,36.7Z"/>
  <path class="cls-5" d="M49.1,78.5c-21.2,0-38.5-17.3-38.5-38.5S27.8,1.5,49.1,1.5s38.5,17.3,38.5,38.5-17.3,38.5-38.5,38.5ZM49.1,5.1c-19.3,0-34.9,15.7-34.9,34.9s15.7,34.9,34.9,34.9,34.9-15.7,34.9-34.9S68.3,5.1,49.1,5.1Z"/>
  <path class="cls-6" d="M49.1,80c-22.1,0-40-17.9-40-40S27,0,49.1,0s40,17.9,40,40-17.9,40-40,40ZM49.1,6.5c-18.5,0-33.5,15-33.5,33.5s15,33.5,33.5,33.5,33.5-15,33.5-33.5S67.5,6.5,49.1,6.5Z"/>
  <path class="cls-6" d="M49.1,79.1c-21.6,0-39.1-17.5-39.1-39.1S27.5.9,49.1.9s39.1,17.5,39.1,39.1-17.5,39.1-39.1,39.1ZM49.1,5.6c-19,0-34.4,15.4-34.4,34.4s15.4,34.4,34.4,34.4,34.4-15.4,34.4-34.4S68,5.6,49.1,5.6Z"/>
  <path class="cls-4" d="M49.1,78.5c-21.2,0-38.5-17.3-38.5-38.5S27.8,1.5,49.1,1.5s38.5,17.3,38.5,38.5-17.3,38.5-38.5,38.5ZM49.1,5.1c-19.3,0-34.9,15.7-34.9,34.9s15.7,34.9,34.9,34.9,34.9-15.7,34.9-34.9S68.3,5.1,49.1,5.1Z"/>
  <path class="cls-6" d="M49.1,1.5c21.2,0,38.5,17.3,38.5,38.5s-17.3,38.5-38.5,38.5S10.5,61.2,10.5,40,27.8,1.5,49.1,1.5ZM49.1,74.9c19.3,0,34.9-15.7,34.9-34.9S68.3,5.1,49.1,5.1,14.1,20.7,14.1,40s15.7,34.9,34.9,34.9ZM49.1.8C27.4.8,9.8,18.4,9.8,40s17.6,39.2,39.2,39.2,39.2-17.6,39.2-39.2S70.7.8,49.1.8ZM49.1,74.3c-18.9,0-34.3-15.4-34.3-34.3S30.2,5.7,49.1,5.7s34.3,15.4,34.3,34.3-15.4,34.3-34.3,34.3h0Z"/>
  <path class="cls-1" d="M69.7,15.2c-.9-.3-2.3-.6-3.9-.5,0,0,0,0-.2,0-1.4,0-9.9.5-15,3.8-3,2-5.5,3.9-5.5,3.9-3.1,2.8-5,2.9-8.8,3-2,0-4.5.2-7.9.7-4.6.8-8.2,2.4-10.6,4.9-.2.2-.3.4-.2.7,0,.5.3.8.4,1,0,0,0,.1.1.2,0,0,0,.1,0,.1,0,.3,0,2.8-.2,2.8,0,0-.1-.2-.3-.6-.2-.4-.2-.5-.3-.5,0,0-.4-.6-.9-.5-.4,0-.7.3-.8.7,0,.2,0,.3,0,.5,0,.6-.4,1-.8,1.5-.6.7-1.4,1.6-1.4,3.2h0c0,0,0,2.5,0,4.5,0,4.7,0,4.8.2,5,0,0,0,.1.1.2,1.9,2.3,8.6,1.9,8.6,1.9,8.1-.5,6,.4,11.3-.2,9.2-1,10.9-3.1,15-1.6,1.5.5,2.9,1.4,4.9,1.1,1.2-.2,3.9-1,5-1.2,0,0,.9-.2.9-.2.2-3.7.2-3.9.2-3.9.4-3.7,1.3-8.2,3.9-10.9.5-.6,1.4-1.2,2.5-1.4,2.4-.4,4.1,2.9,4.7,5.1.7,2.8.4,6.1-.8,9.1-.3.7-.7,1.4-1.1,2h0c-.6.8-.9,1.1-1,1.2,1.1-.8,3.8-2.5,7.5-2.8,2.5-.2,4.5.3,5.8.7.7-3.7,1.4-9.8-.4-16.7-.7-2.8-2.1-7.6-6.1-12.3-1.7-2-3.4-3.3-4.6-4.2h0ZM70.5,18c.3.2,1.1.9,1.9,1.8.5.5.9,1,1.2,1.4,0,.1-.1.2-.2.3,0,0,0,.2-.1.3-.2.5-.4.9-.6,1.2-.1.3-.3.7-.4.8-.2,0-.6,0-1,0,0,0-.1,0-1.4,0-.8,0-10.8.3-24.7,1,1.9-1.9,5-4.5,9.3-6.3.8-.3,1.5-.6,2.2-.8.7-.2,1.3-.3,1.9-.5.6-.1,2.3-.5,4.2-.6,2-.1,5.5-.3,7.6,1.4h0ZM35.7,33.2c0,.2-.2.5-.5,1.1-1.6,2.6-2.6,2.9-4.9,3.1h-.3c-.6,0-2,.2-2.4.1-.3-.3-.7-1.8-.3-2.9.2-.6.7-1,1.4-1,1.1,0,2.1-.2,3-.3,1.6-.2,3.4-.3,4-.2h0ZM24.1,37.3c-1.4.3-2.8,0-3.3-.7-.2-.3-.3-.7-.4-.9-.1-.5-.4-1.5,0-1.9.3-.3.6-.1,2.4,0,1.2,0,1.4,0,1.6.2.8.7-.1,2.9-.3,3.4h0ZM18.7,43.1c0-.2.5-.8.8-1.8,0-.1,0-.2,0-.3,2,0,3.6,0,4.8-.1,2.2,0,4.5,0,6.7,0,2.3,0,2.5.3,3.3,1.8l.3.6c1.1,2,2.1,3.8,1.6,4.5-.9,1.5-8.6,1.1-11.1.9-3.1-.2-7.3-1-8.1-1.5,0-.8,1.1-3.2,1.6-4.1h0ZM58.1,31.2c-4.1,2.9-5.5,3-11.8,3.6h-1.1c-1.1.2-1.9.1-2.5,0-.3,0-.5-.2-1.2-.3-1.2-.3-1.4-.3-1.5-.4,0-.4,2.9-1.5,6.4-2.2,1-.2,1.9-.2,3.1-.4,4.5-.6,6.7-.8,8.5-.3h0Z"/>
  <path class="cls-6" d="M66.2,14.7c1.5,0,2.7.3,3.6.6,1.2.9,2.9,2.3,4.6,4.2,4,4.7,5.3,9.5,6.1,12.3,1.8,7,1.1,13.1.4,16.7-1-.3-2.6-.7-4.6-.7s-.7,0-1.1,0c-3.7.3-6.4,2-7.5,2.8.1,0,.4-.3,1-1.1h0c.5-.6.8-1.3,1.1-2.1,1.2-3,1.5-6.3.8-9.1-.5-2.1-2.1-5.1-4.3-5.1s-.3,0-.4,0c-1.1.2-1.9.9-2.5,1.4-2.6,2.7-3.5,7.3-3.9,10.9,0,0,0,.1-.2,3.9,0,0-.9.2-.9.2-1.1.2-3.8,1-5,1.2-.3,0-.6,0-.9,0-1.5,0-2.8-.7-4-1.1-1-.4-1.8-.5-2.7-.5-2.6,0-5.3,1.4-12.3,2.1-1.5.2-2.4.2-3.1.2-1.3,0-1.9-.2-4.1-.2s-2.3,0-4.1.1c0,0-.3,0-.9,0-1.9,0-6.2-.2-7.7-1.9,0,0,0-.1-.1-.2-.2-.3-.2-.3-.2-5,0-2,0-4.5,0-4.5h0c0-1.6.8-2.5,1.4-3.2.4-.5.8-.9.8-1.5,0-.2,0-.3,0-.5,0-.4.4-.7.8-.7,0,0,0,0,0,0,.5,0,.8.5.9.6,0,0,0,.1.3.5.2.4.3.6.3.6.3,0,.2-2.5.2-2.8,0,0,0,0,0-.1,0,0,0,0-.1-.2-.1-.2-.4-.5-.4-1,0-.2,0-.5.2-.7,2.4-2.5,6-4.2,10.6-4.9,3.4-.6,5.9-.7,7.9-.7,3.7-.1,5.6-.2,8.8-3,0,0,2.5-1.9,5.5-3.9,5.1-3.3,13.6-3.8,15-3.8,0,0,.2,0,.2,0,.1,0,.2,0,.4,0ZM45.3,24.7c13.5-.7,23.5-1,24.6-1h0c1.3,0,1.4,0,1.4,0,.2,0,.5,0,.7,0s.3,0,.3,0c0-.1.2-.5.4-.8.1-.3.3-.7.6-1.2,0,0,0-.2.1-.3,0-.1.1-.2.2-.3-.3-.3-.7-.8-1.2-1.4-.9-.9-1.6-1.6-1.9-1.8-1.5-1.2-3.8-1.5-5.6-1.5s-1.4,0-2,0c-1.8.1-3.5.5-4.2.6-.6.1-1.2.3-1.9.5-.7.2-1.5.5-2.2.8-4.4,1.7-7.5,4.3-9.3,6.3M44.1,34.9c.3,0,.7,0,1.1,0h1.1c6.3-.7,7.6-.8,11.8-3.7-.7-.2-1.4-.3-2.3-.3-1.5,0-3.4.2-6.2.6-1.2.1-2,.2-3.1.4-3.5.6-6.5,1.7-6.4,2.2,0,.1.3,0,1.5.4.7.2.8.3,1.2.3.4,0,.8.1,1.4.1M28.2,37.6c.6,0,1.4,0,1.9-.1h.3c2.3-.3,3.3-.6,4.9-3.2.4-.6.5-.9.5-1.1-.2,0-.4,0-.7,0-.8,0-2.1.1-3.2.2-.9,0-1.9.2-3,.3-.7,0-1.2.4-1.4,1-.4,1.1,0,2.6.3,2.9.1,0,.3,0,.5,0M22.9,37.5c.4,0,.8,0,1.2-.1.2-.5,1.1-2.7.3-3.4-.2-.2-.4-.1-1.6-.2-1.1,0-1.6-.2-1.9-.2s-.3,0-.5.2c-.4.5-.2,1.5,0,1.9,0,.2.2.6.4.9.4.6,1.2.8,2.1.8ZM30.1,48.9c2.8,0,5.6-.2,6.2-1.1.4-.7-.6-2.5-1.6-4.5l-.3-.6c-.8-1.4-1-1.8-3.2-1.8h-.6c-1.4,0-2.8,0-4.2,0s-1.4,0-2.1,0c-1.1,0-2.8.1-4.8.1,0,0,0,.2,0,.3-.3,1-.7,1.6-.8,1.8-.5.9-1.6,3.4-1.6,4.1.9.5,5,1.3,8.1,1.5,1,0,3,.2,4.9.2M66.2,14c-.1,0-.2,0-.4,0,0,0,0,0-.2,0-1.7,0-10.2.5-15.3,3.9-2.7,1.8-5.3,3.7-5.6,3.9h0c-3,2.6-4.7,2.7-8.3,2.8-2,0-4.6.2-8,.7-4.8.8-8.4,2.5-11,5.1-.3.3-.5.7-.4,1.2,0,.7.3,1.1.5,1.3,0,.1,0,.2,0,.4,0,0,0,.2,0,.3-.3-.3-.7-.4-1-.4s-.1,0-.2,0c-.7,0-1.3.6-1.4,1.3,0,.2,0,.3,0,.5,0,.4-.3.6-.7,1.1-.6.8-1.5,1.8-1.6,3.6h0c0,.4,0,2.9,0,4.6,0,3.3,0,5.1.2,5.4,0,0,.1.2.2.3,1.6,1.9,5.8,2.2,8.2,2.2s.9,0,.9,0c1.6,0,3-.1,4.1-.1s1.9,0,2.6.1c.5,0,1,0,1.5,0s1.8,0,3.1-.2c3.8-.4,6.4-1,8.3-1.5,1.6-.4,2.8-.7,3.9-.7s1.6.1,2.5.5c.3,0,.6.2.9.3,1,.4,2.1.8,3.4.8s.7,0,1,0c.7-.1,1.7-.4,2.7-.7.9-.2,1.8-.5,2.3-.6h0c.1,0,.8-.1.9-.2.3,0,.6-.3.6-.6.2-3.2.2-3.8.2-3.8.4-3.6,1.2-8,3.7-10.5.5-.5,1.2-1.1,2.1-1.2,0,0,.2,0,.3,0,1.7,0,3.2,2.7,3.7,4.6.7,2.7.4,5.8-.8,8.6-.3.7-.6,1.3-1.1,1.9h0c-.6.8-.8,1-.8,1-.3.2-.4.6-.1.9.1.2.3.3.5.3s.3,0,.4-.1c1.5-1.1,3.9-2.4,7.2-2.7.4,0,.7,0,1.1,0,1.5,0,3,.2,4.4.7,0,0,.1,0,.2,0,.1,0,.2,0,.3,0,.2,0,.3-.3.3-.4,1.2-5.8,1-11.5-.4-17.1-.7-2.7-2-7.7-6.2-12.6-1.4-1.6-3-3.1-4.7-4.3,0,0-.1,0-.2,0-1.2-.4-2.5-.6-3.8-.6h0ZM47.1,23.9c2.3-2.1,5-3.7,7.8-4.9.7-.3,1.4-.5,2.2-.7.6-.2,1.2-.3,1.8-.5.6-.1,2.3-.5,4-.6.6,0,1.2,0,2,0,2.4,0,4.1.4,5.2,1.3.3.2,1,.9,1.8,1.7.3.3.6.6.9,1,0,0,0,.1,0,.2-.2.5-.4.9-.6,1.2,0,.1-.1.3-.2.4-.2,0-.4,0-.6,0-.1,0-.6,0-1.5,0h0c-1.2,0-10.5.3-22.9.9h0ZM41.8,33.9c1.1-.4,2.8-.9,4.8-1.3.6-.1,1.2-.2,1.9-.2.4,0,.8,0,1.2-.1,2.8-.4,4.7-.6,6.1-.6s.3,0,.5,0c-3,1.9-4.6,2-10,2.5h-1.1c-.4.1-.7.2-1,.2-.5,0-.9,0-1.3-.1-.1,0-.2,0-.4-.1-.2,0-.3-.1-.6-.2h0ZM28.1,36.9c-.2-.4-.4-1.3-.1-2,.1-.3.3-.5.8-.6,1.1,0,2.1-.2,3-.3v-.7c0,0,0,.7,0,.7,1-.1,2.1-.2,2.9-.2,0,0,0,0,0,.1-1.4,2.3-2.2,2.6-4.3,2.8h-.3c-.4,0-1.3.2-1.8.2h0ZM20.9,34.3h0c.1,0,.3,0,.6,0,.3,0,.7,0,1.3.1.3,0,.5,0,.7,0,.2,0,.4,0,.5,0,.1.2.1.9-.4,2.2-.2,0-.5,0-.7,0-.8,0-1.3-.2-1.6-.6-.1-.2-.2-.5-.3-.7-.2-.8-.2-1.1-.1-1.2ZM20.1,41.7c1.4,0,2.9,0,4.3-.1.6,0,1.3,0,2.1,0s1.4,0,2.1,0c.7,0,1.4,0,2.1,0h.6c1.8,0,1.9.2,2.6,1.4l.3.6c.5.9,1,1.8,1.3,2.5.4.9.4,1.2.4,1.3,0,0-.8.8-5.6.8s-3.8-.1-4.9-.2c-2.8-.2-6.2-.8-7.4-1.2.1-.5.5-1.4,1.5-3.4,0,0,0,0,0,0,.1-.3.5-.8.7-1.6h0Z"/>
  <path class="cls-6" d="M7.7,51c-1.3-1.2-2.6-2.3-3.8-3.5,15-2.1,29.9-4.3,44.9-6.5,15.3-2.2,30.7-4.5,46-6.8-1,2.3-2,4.6-3.1,6.9,1,2.3,2,4.5,3.1,6.8-14.3,2-28.6,4-42.8,6-13.6,1.9-27.1,3.9-40.7,5.8-.5-.3-2.4-1.2-3.4-3.4-1.2-2.6-.4-4.9-.2-5.4h0Z"/>
  <path class="cls-6" d="M11.2,60.1h0c-.9-.5-2.6-1.5-3.5-3.6-1.1-2.3-.6-4.5-.3-5.5l-4.2-3.8h.7c14.9-2.2,30-4.4,44.9-6.6,15.3-2.2,30.7-4.5,46-6.8h.6c0,0-3.2,7.3-3.2,7.3l3.2,7h-.4c-14.2,2.1-28.6,4.1-42.8,6.1-13.5,1.9-27.2,3.9-40.7,5.8h-.1s0,0,0,0ZM4.6,47.8l3.5,3.1v.2c-.3.6-1,2.8,0,5.2.8,1.8,2.3,2.8,3.1,3.2,13.4-1.9,27.1-3.9,40.6-5.8,14.1-2,28.3-4,42.4-6l-2.9-6.5,2.9-6.5c-15.1,2.2-30.3,4.5-45.4,6.7-14.6,2.1-29.5,4.3-44.2,6.4h0Z"/>
  <path class="cls-6" d="M10.7,60.8c-1-.5-2.8-1.6-3.9-3.9-1-2.2-.8-4.3-.5-5.5l-5.1-4.6,2.4-.3c14.9-2.1,30-4.3,44.9-6.5,15.3-2.2,30.7-4.5,46-6.8l2-.3-3.7,8.3,3.5,7.7-1.5.2c-14.2,2-28.7,4-42.8,6-13.5,1.9-27.2,3.9-40.7,5.8h-.3s-.3,0-.3,0Z"/>
  <path class="cls-6" d="M11,61.3l-.4-.2c-1-.5-2.9-1.7-4.1-4.1-1-2.2-.8-4.2-.5-5.6l-5.5-4.9,3.1-.4c15-2.1,30.1-4.3,44.9-6.5,15.3-2.2,30.7-4.5,46-6.8l2.6-.4-3.9,8.8,3.6,7.9-1.9.3c-14.3,2-28.7,4-42.8,6-13.6,1.9-27.3,3.9-40.7,5.8h-.4ZM10.9,60.5h.2c0,.1.2,0,.2,0,13.4-1.9,27.1-3.9,40.7-5.8,14.1-2,28.5-4,42.8-6h1c0-.1-3.3-7.5-3.3-7.5l3.5-7.9-1.4.2c-15.3,2.3-30.7,4.5-46,6.8-14.8,2.2-29.9,4.3-44.9,6.5l-1.7.2,4.7,4.2v.2c-.4,1.3-.6,3.2.4,5.3,1,2.2,2.8,3.3,3.7,3.8h0Z"/>
  <path class="cls-6" d="M7.7,51c-1.3-1.2-2.6-2.3-3.8-3.5,15-2.1,29.9-4.3,44.9-6.5,15.3-2.2,30.7-4.5,46-6.8-1,2.3-2,4.6-3.1,6.9,1,2.3,2,4.5,3.1,6.8-14.3,2-28.6,4-42.8,6-13.6,1.9-27.1,3.9-40.7,5.8-.5-.3-2.4-1.2-3.4-3.4-1.2-2.6-.4-4.9-.2-5.4h0Z"/>
  <path class="cls-6" d="M11.2,60.1h0c-.9-.5-2.6-1.5-3.5-3.6-1.1-2.3-.6-4.5-.3-5.5l-4.2-3.8h.7c14.9-2.2,30-4.4,44.9-6.6,15.3-2.2,30.7-4.5,46-6.8h.6c0,0-3.2,7.3-3.2,7.3l3.2,7h-.4c-14.2,2.1-28.6,4.1-42.8,6.1-13.5,1.9-27.2,3.9-40.7,5.8h-.1s0,0,0,0ZM4.6,47.8l3.5,3.1v.2c-.3.6-1,2.8,0,5.2.8,1.8,2.3,2.8,3.1,3.2,13.4-1.9,27.1-3.9,40.6-5.8,14.1-2,28.3-4,42.4-6l-2.9-6.5,2.9-6.5c-15.1,2.2-30.3,4.5-45.4,6.7-14.6,2.1-29.5,4.3-44.2,6.4h0Z"/>
  <path class="cls-2" d="M15.5,49.9l-2.6.4c-.8.6-1.7,1.7-1.5,3.2.2,1.5.8,1.9,1.3,2.1l2.5-.4v2.6c0,0-2.8.4-2.8.4-2-.4-3.2-2-3.5-4.2-.1-1,0-2.4.7-3.6l-2.6-2,8.5-1.2v2.7c0,0,0,0,0,0Z"/>
  <path class="cls-2" d="M18.5,49.1l-2.6-2,5.2-.7-.2,8,3.5-.5v2.6s-6.1.9-6.1.9l.2-8.3Z"/>
  <path class="cls-2" d="M31.9,47.5l-3.6.5v1.5c0,0,2.4-.4,2.4-.4v2.2c0,0-2.6.4-2.6.4v1.6c0,0,3.6-.5,3.6-.5v2.6c0,0-6.3.9-6.3.9l.2-8.3-2.6-2,8.7-1.2v2.7s0,0,0,0Z"/>
  <path class="cls-2" d="M40.6,54.2l-2.7.4-.3-2-2.1.3-.4,2.1-2.8.4,2.2-8.5-2.6-2,6.5-.9,2.1,10.2ZM36.8,47.1h-.2s-.7,3.9-.7,3.9l1.5-.2-.5-3.7h0Z"/>
  <path class="cls-2" d="M46.6,48.2l.2-5.5,2.4-.3-.3,10.6-2.4.3-2.4-5-.2,5.4-2.4.3.2-8.3-2.6-2,5-.7,2.6,5.1h0Z"/>
  <path class="cls-2" d="M57.8,43.8l-3.6.5v1.6c0,0,2.4-.4,2.4-.4v2.5c0,0-2.5.4-2.5.4v3.8c-.1,0-2.7.4-2.7.4l.3-8.3-2.6-1.9,8.7-1.2v2.7c0,0,0,0,0,0Z"/>
  <path class="cls-2" d="M63,46.4v4.6c0,0-2.6.4-2.6.4l.2-8.3-2.6-2,7.6-1.1c.7.5,1.1,1.3,1.3,2.3.2,1.1-.2,2.2-1,3.1l2,4.8-2.7.4-1.6-4.4h-.7c0,0,0,0,0,0ZM63.1,42.9v1.8c0,0,1.1-.2,1.1-.2.3-.4.4-.9.3-1.5,0-.1,0-.2,0-.3l-1.3.2h0Z"/>
  <path class="cls-2" d="M74.9,41.4l-3.6.5v1.5c0,0,2.4-.4,2.4-.4v2.2c0,0-2.6.4-2.6.4v1.6c0,0,3.6-.5,3.6-.5v2.6c0,0-6.3.9-6.3.9l.2-8.3-2.6-2,8.7-1.2v2.7s0,0,0,0Z"/>
  <path class="cls-2" d="M83.6,48l-2.7.4-.3-2-2.1.3-.4,2.1-2.8.4,2.2-8.5-2.6-2,6.5-.9,2.1,10.2h0ZM79.8,40.9h-.2s-.7,3.9-.7,3.9l1.5-.2-.5-3.7Z"/>
  <path class="cls-2" d="M87.6,42.7h-.6c0,0-.1,4.9-.1,4.9l-2.5.4.2-8.3-2.6-2,5.2-.7v3.3c-.1,0,.4,0,.4,0l1.5-3.5,3.1-.4-2.4,4.7,2.3,5.9-2.8.4-1.7-4.5h0Z"/>
  <path class="cls-6" d="M31.4,63.5l-2.2.3-.3,1h-.9c0,.1,1.3-4.7,1.3-4.7h.9c0-.1,2.6,4.1,2.6,4.1h-.9c0,.1-.5-.8-.5-.8ZM30.9,62.8l-1.1-1.8-.5,2,1.6-.2h0Z"/>
  <path class="cls-6" d="M33,60.7l1.3,2.5.5-2.8h.8c0-.1-.8,3.5-.8,3.5h-.9c0,.1-1.8-3.1-1.8-3.1h.9c0-.1,0-.1,0-.1Z"/>
  <path class="cls-6" d="M38.6,63.2c-.2.2-.5.3-.8.4-.6,0-1.1-.2-1.2-.9l-.3-1.7h-.5c0,0,0-.5,0-.5h.5c0,0-.1-1-.1-1h.8c0-.1.1.8.1.8h1c0-.1,0,.5,0,.5h-1c0,.1.2,1.7.2,1.7,0,.3.2.4.4.4.1,0,.3,0,.5-.2l.3.6h0Z"/>
  <path class="cls-6" d="M42.4,61c.2,1.1-.5,1.9-1.6,2-1.1.2-1.9-.4-2.1-1.5-.2-1,.5-1.9,1.6-2,1.1-.2,1.9.4,2.1,1.5h0ZM39.6,61.5c0,.6.6,1,1.1.9.6,0,.9-.6.8-1.2,0-.6-.6-1-1.1-.9-.6,0-.9.6-.8,1.2h0Z"/>
  <path class="cls-6" d="M44.5,61l-.4.6v1c.1,0-.7.1-.7.1l-.7-4.8h.8c0-.1.4,2.7.4,2.7l1.2-1.6h1c0-.1-1.1,1.4-1.1,1.4l1.7,1.9h-1c0,.1-1.2-1.2-1.2-1.2h0Z"/>
  <path class="cls-6" d="M50.2,59.9c.2,1.1-.5,1.9-1.6,2-1.1.2-1.9-.4-2.1-1.5-.2-1,.5-1.9,1.6-2,1.1-.2,1.9.4,2.1,1.5h0ZM47.4,60.3c0,.6.6,1,1.1.9.6,0,.9-.6.8-1.2,0-.6-.6-1-1.1-.9-.6,0-.9.6-.8,1.2h0Z"/>
  <path class="cls-6" d="M53.3,57.7v.6c0,0-1.5,2.5-1.5,2.5l2-.3v.7c.1,0-2.9.4-2.9.4v-.6c0,0,1.5-2.5,1.5-2.5l-1.8.3v-.7c-.1,0,2.8-.4,2.8-.4h0Z"/>
  <path class="cls-6" d="M60,58l.3,2.2h-.8c0,.1-.3-1.8-.3-1.8,0-.5-.4-.7-.9-.7-.5,0-.8.6-.7,1.1l.3,1.7h-.8c0,.1-.3-1.8-.3-1.8,0-.5-.4-.7-.9-.7-.5.1-.8.6-.7,1.1l.3,1.7h-.8c0,.1-.5-3.3-.5-3.3h.8c0-.1,0,.5,0,.5.2-.5.6-.8,1.1-.9.6,0,1.1.2,1.3.6.1-.6.6-.9,1.2-1,.8-.1,1.3.3,1.5,1.1h0Z"/>
  <path class="cls-6" d="M64.1,58.1l-2.6.4c.2.5.6.7,1.1.6.4,0,.7-.2.9-.5l.5.4c-.3.4-.8.7-1.4.8-1.1.2-1.9-.4-2-1.5-.2-1.1.5-1.9,1.5-2,1.2-.2,1.9.5,2,1.8h0ZM63.3,57.7c0-.5-.5-.8-1-.7-.5,0-.8.4-.8,1l1.8-.3Z"/>
  <path class="cls-6" d="M67.1,58.9c-.2.2-.5.3-.8.4-.6,0-1.1-.2-1.2-.9l-.3-1.7h-.5c0,0,0-.5,0-.5h.5c0,0-.1-1-.1-1h.8c0-.1.1.8.1.8h1c0-.1,0,.5,0,.5h-1c0,.1.2,1.7.2,1.7,0,.3.2.4.4.4.1,0,.3,0,.5-.2l.3.6h0Z"/>
  <path class="cls-6" d="M68,54.5c0,.3-.1.5-.4.5-.3,0-.5-.1-.5-.4,0-.3.1-.5.4-.5.3,0,.5.1.5.4ZM68.1,55.5l.5,3.5h-.8c0,.1-.5-3.3-.5-3.3h.8Z"/>
  <path class="cls-6" d="M70.8,57l-.4.6v1c.1,0-.7.1-.7.1l-.7-4.8h.8c0-.1.4,2.7.4,2.7l1.2-1.6h1c0-.1-1.1,1.4-1.1,1.4l1.7,1.9h-1c0,.1-1.2-1.2-1.2-1.2h0Z"/>
  <path class="cls-6" d="M75.4,57.9v-.4c-.3.3-.6.6-1.1.6-.7.1-1.3-.3-1.4-.9,0-.6.3-1.1,1.2-1.2h1c0-.1,0-.2,0-.2,0-.4-.4-.6-.9-.5-.3,0-.7.2-1,.5l-.4-.5c.5-.4.8-.6,1.5-.7.9-.1,1.5.2,1.6,1l.3,2.3h-.8c0,.1,0,.1,0,.1ZM75.2,56.7v-.3s-.9.1-.9.1c-.4,0-.6.2-.6.5,0,.3.3.4.7.4.5,0,.8-.4.8-.7Z"/>
  <path class="cls-3" d="M41.9,22.4c-.5,0-.9-.2-1.3-.5-.3-.2-.9-.5-1.3-1.1-.1-.2-.3-.5-.6-2.2,0-.4-.1-.7-.2-1-.2-1.1-.2-1.2-.5-1.1-.2,0-.2.2-.2.5,0,.3,0,.8-.1,1.5,0,.2,0,.4-.1.7-.1.4-.3,1.1-.9,1.8-.5.7-1.2,1.2-2,1.4,0,0-.2,0-.2,0-.1,0-.2.1-.2.2,0,.1,0,.2.2.2.4,0,.7.1,1.1.2.7.3,1.3.7,1.5,1.2.2.4.4,1,.6,2.2,0,.5.2.9.2,1.2.1.7.2.9.4.9s0,0,0,0c.2,0,.2-.2.2-.5,0-.2,0-.6,0-1,0-.4,0-.9.3-1.5.1-.4.3-1,.8-1.5.2-.2.8-.9,1.9-1.2.1,0,.2,0,.3,0,.1,0,.2-.1.2-.2s0-.2-.2-.2h0Z"/>
  <path class="cls-6" d="M38.1,16.5c.2,0,.2.2.4,1.1,0,.3.1.6.2,1,.3,1.7.5,2,.6,2.2.4.6,1,.9,1.3,1.1.4.2.9.4,1.3.5.1,0,.2.1.2.2,0,.1,0,.2-.2.2,0,0-.2,0-.3,0-1.1.3-1.7,1-1.9,1.2-.5.6-.6,1.1-.8,1.5-.2.6-.2,1.1-.3,1.5,0,.4,0,.8,0,1,0,.3,0,.5-.2.5,0,0,0,0,0,0-.2,0-.2-.2-.4-.9,0-.3-.1-.7-.2-1.2-.2-1.2-.4-1.8-.6-2.2-.3-.5-.8-.9-1.5-1.2-.3,0-.7-.2-1.1-.2-.1,0-.2-.1-.2-.2,0-.1,0-.2.2-.2,0,0,.1,0,.2,0,.7-.2,1.4-.7,2-1.4.6-.7.8-1.5.9-1.8,0-.3.1-.5.1-.7.1-.7.1-1.2.1-1.5,0-.3,0-.5.2-.5,0,0,0,0,0,0M38.1,16.1s0,0-.1,0c-.6,0-.6.7-.6,1,0,.3,0,.8-.1,1.4,0,.2,0,.4-.1.6,0,.4-.3,1-.8,1.7-.5.6-1.1,1-1.7,1.2,0,0-.1,0-.2,0-.3,0-.5.4-.5.7,0,.3.3.6.6.6.3,0,.7.1,1,.2.6.2,1.1.6,1.3,1,.2.4.4.9.6,2.1,0,.5.2.9.2,1.2.1.8.2,1.3.8,1.3s0,0,0,0c.6,0,.6-.7.6-1,0-.2,0-.5,0-1,0-.3,0-.8.3-1.4.1-.4.3-.9.7-1.4.2-.2.7-.8,1.7-1.1,0,0,.2,0,.3,0,.3,0,.6-.3.6-.7,0-.3-.2-.6-.6-.7-.4,0-.8-.2-1.2-.4-.3-.1-.8-.4-1.1-.9-.1-.1-.2-.4-.6-2,0-.4-.1-.7-.2-1-.2-1.1-.3-1.5-.9-1.5h0Z"/>
  <path class="cls-3" d="M33,12.1c.1.2.2.5.3,1.2,0,.3,0,.5.1.7,0,.4,0,.6.3.6h0c.2,0,.2-.2.2-.4,0-.1,0-.3,0-.5,0-.2,0-.5.1-.8,0-.2.2-.5.4-.8,0-.1.4-.5,1-.6,0,0,.1,0,.2,0,.1,0,.2-.1.2-.2s0-.2-.2-.2c-.2,0-.5-.1-.7-.2-.1,0-.5-.2-.7-.6,0,0-.1-.2-.3-1.2,0-.2,0-.4,0-.5-.1-.6-.1-.7-.4-.7-.2,0-.2.2-.2.4,0,.2,0,.4,0,.8,0,0,0,.2,0,.4,0,.2-.2.6-.4,1-.3.4-.6.6-1,.7,0,0,0,0-.1,0-.1,0-.2.1-.2.2,0,.1,0,.2.2.2.2,0,.4,0,.5.1.4.1.6.3.8.6h0Z"/>
  <path class="cls-6" d="M33.6,7.7c.2,0,.2.2.3.7,0,.1,0,.3.1.5.2,1,.3,1.1.3,1.2.2.3.5.5.7.6.2.1.5.2.7.2.1,0,.2.1.2.2,0,.1,0,.2-.2.2,0,0,0,0-.2,0-.6.2-.9.5-1,.6-.2.3-.3.6-.4.8,0,.3-.1.6-.1.8,0,.2,0,.4,0,.5,0,.2,0,.4-.2.4h0c-.2,0-.2-.2-.3-.6,0-.2,0-.4-.1-.7-.1-.6-.2-.9-.3-1.2-.1-.2-.4-.4-.8-.6-.2,0-.3,0-.5-.1-.1,0-.2-.1-.2-.2,0-.1,0-.2.2-.2,0,0,0,0,.1,0,.4-.1.7-.4,1-.7.3-.4.4-.8.4-1,0-.1,0-.3,0-.4,0-.4,0-.6,0-.8,0-.2,0-.4.2-.4,0,0,0,0,0,0M33.6,7.3s0,0,0,0c-.2,0-.6.2-.6.8,0,.2,0,.4,0,.7,0,0,0,.2,0,.3,0,.2-.1.5-.4.8-.2.3-.5.5-.8.6,0,0,0,0,0,0-.3,0-.5.4-.5.7,0,.3.3.6.6.6.2,0,.3,0,.5,0,.3,0,.4.2.5.4,0,.2.2.5.3,1,0,.2,0,.5.1.6,0,.4.2,1,.7,1s0,0,0,0c.3,0,.6-.2.6-.8,0-.1,0-.3,0-.5,0-.2,0-.4.1-.7,0-.2.1-.4.3-.7,0,0,.3-.4.8-.5,0,0,0,0,.1,0,.3,0,.6-.3.6-.7,0-.3-.2-.6-.6-.7-.2,0-.4,0-.6-.2-.1,0-.4-.2-.5-.4,0,0-.1-.4-.3-1,0-.2,0-.4,0-.5-.1-.6-.2-1.1-.8-1.1h0Z"/>
  <path class="cls-3" d="M47.6,13.8c.1,0,.2-.1.2-.2,0-.1,0-.2-.2-.2-.3,0-.6-.1-.8-.3-.2,0-.5-.3-.8-.7,0,0-.2-.2-.4-1.4,0-.2,0-.4-.1-.6-.1-.7-.2-.8-.4-.8-.2,0-.2.2-.2.4,0,.2,0,.5,0,1,0,.1,0,.3,0,.4,0,.2-.2.7-.5,1.2-.3.4-.7.7-1.2.9,0,0,0,0-.1,0-.1,0-.2.1-.2.2,0,.1,0,.2.2.2.2,0,.4,0,.6.1.4.2.7.4.9.7.1.3.2.6.4,1.4,0,.3.1.6.1.8,0,.5.1.6.3.6s0,0,0,0c.2,0,.2-.2.2-.4,0-.1,0-.4,0-.6,0-.2,0-.6.2-.9,0-.3.2-.6.5-1,.1-.1.5-.6,1.2-.8,0,0,.1,0,.2,0h0Z"/>
  <path class="cls-6" d="M45.2,9.7c.2,0,.2.2.3.8,0,.2,0,.4.1.6.2,1.1.3,1.3.4,1.4.3.4.6.6.8.7.3.1.5.2.8.3.1,0,.2.1.2.2s0,.2-.2.2c0,0-.1,0-.2,0-.6.2-1,.6-1.2.8-.3.3-.4.7-.5,1-.1.4-.2.7-.2.9,0,.3,0,.5,0,.6,0,.2,0,.4-.2.4,0,0,0,0,0,0-.2,0-.2-.2-.3-.6,0-.2,0-.5-.1-.8-.1-.8-.3-1.1-.4-1.4-.2-.3-.5-.5-.9-.7-.2,0-.4-.1-.6-.1-.1,0-.2-.1-.2-.2,0-.1,0-.2.2-.2,0,0,0,0,.1,0,.5-.1.9-.4,1.2-.9.3-.4.5-.9.5-1.2,0-.2,0-.3,0-.4,0-.4,0-.8,0-1,0-.2,0-.4.2-.4,0,0,0,0,0,0M45.2,9.2s0,0,0,0c-.3,0-.6.2-.6.9,0,.2,0,.5,0,.9,0,0,0,.2,0,.4,0,.2-.2.6-.4,1-.3.3-.6.6-1,.7,0,0,0,0,0,0-.3,0-.5.4-.5.7,0,.3.3.6.6.6.2,0,.4,0,.5.1.3.1.6.3.7.5.1.2.2.6.3,1.3,0,.3.1.6.1.8,0,.5.2,1,.7,1s0,0,0,0c.4,0,.6-.3.6-.9,0-.1,0-.3,0-.6,0-.2,0-.5.2-.8,0-.3.2-.5.4-.8,0,0,.4-.5.9-.6,0,0,0,0,.1,0,.3,0,.6-.3.6-.7,0-.3-.2-.6-.6-.7-.2,0-.5-.1-.7-.2-.2,0-.4-.2-.6-.5,0,0-.1-.2-.3-1.2,0-.2,0-.4-.1-.6h0c-.1-.7-.2-1.2-.8-1.2h0Z"/>
  <path class="cls-3" d="M58.3,65.4c-.2,0-.5-.1-.7-.2-.1,0-.4-.2-.6-.5,0,0-.1-.2-.3-1.1,0-.2,0-.4,0-.5-.1-.6-.1-.7-.4-.7-.2,0-.2.2-.2.4,0,.2,0,.4,0,.8,0,0,0,.2,0,.3,0,.2-.1.6-.4.9-.3.3-.6.6-1,.7,0,0,0,0-.1,0-.1,0-.2.1-.2.2,0,.1,0,.2.2.2.2,0,.4,0,.5.1.4.1.6.3.7.5.1.2.2.5.3,1.1,0,.2,0,.5.1.6,0,.4,0,.6.3.6s0,0,0,0c.2,0,.2-.2.2-.4,0-.1,0-.3,0-.5,0-.2,0-.4.1-.7,0-.2.2-.5.4-.8,0-.1.4-.5.9-.6,0,0,.1,0,.1,0,.1,0,.2-.1.2-.2,0-.1,0-.2-.2-.2h0Z"/>
  <path class="cls-6" d="M56.3,62.4c.2,0,.2.2.3.7,0,.1,0,.3,0,.5.2.9.3,1,.3,1.1.2.3.5.5.6.5.2.1.4.2.7.2.1,0,.2.1.2.2,0,.1,0,.2-.2.2,0,0,0,0-.1,0-.5.1-.8.5-.9.6-.2.3-.3.5-.4.8,0,.3-.1.6-.1.7,0,.2,0,.4,0,.5,0,.2,0,.4-.2.4,0,0,0,0,0,0-.2,0-.2-.2-.3-.6,0-.2,0-.4-.1-.6-.1-.6-.2-.9-.3-1.1-.1-.2-.4-.4-.7-.5-.2,0-.3,0-.5-.1-.1,0-.2-.1-.2-.2,0-.1,0-.2.2-.2,0,0,0,0,.1,0,.4-.1.7-.3,1-.7.3-.4.4-.7.4-.9,0-.1,0-.3,0-.3,0-.3,0-.6,0-.8s0-.4.2-.4c0,0,0,0,0,0M56.3,61.9s0,0,0,0c-.2,0-.6.2-.6.8,0,.2,0,.4,0,.7,0,0,0,.2,0,.3,0,.2-.1.5-.3.7-.2.3-.5.4-.7.5,0,0,0,0,0,0-.3,0-.5.4-.5.7,0,.3.3.6.6.6.2,0,.3,0,.4,0,.2,0,.4.2.5.3,0,.2.2.4.3,1,0,.2,0,.4.1.6,0,.4.2.9.7.9s0,0,0,0c.2,0,.6-.2.6-.8,0-.1,0-.3,0-.5,0-.2,0-.4.1-.6,0-.2.1-.4.3-.6,0,0,.3-.3.7-.5,0,0,0,0,.1,0,.3,0,.6-.3.6-.7,0-.3-.2-.6-.6-.7-.2,0-.4,0-.5-.2-.1,0-.3-.2-.5-.4,0,0,0-.2-.2-.9,0-.2,0-.3,0-.5h0s0,0,0,0c-.1-.6-.2-1-.8-1h0Z"/>
  <path class="cls-3" d="M54.3,69.1c-.5,0-1.1-.3-1.5-.5-.3-.2-1-.5-1.5-1.2-.2-.2-.3-.6-.7-2.5,0-.4-.2-.8-.2-1.1-.2-1.2-.2-1.3-.5-1.3-.2,0-.2.2-.2.6,0,.4,0,.9-.1,1.7,0,.2,0,.5-.2.8-.1.4-.3,1.3-1,2.1-.6.8-1.4,1.3-2.3,1.6-.1,0-.2,0-.2,0-.1,0-.2.1-.2.2,0,.1,0,.2.2.2.4,0,.8.1,1.2.3.8.3,1.4.8,1.8,1.3.3.5.5,1.1.7,2.5.1.5.2,1,.2,1.4.1.8.2,1,.4,1s0,0,0,0c.2,0,.2-.2.2-.6,0-.3,0-.6,0-1.1,0-.4.1-1,.3-1.7.2-.5.4-1.1.9-1.8.2-.2,1-1.1,2.2-1.4.1,0,.2,0,.3,0,.1,0,.2-.1.2-.2s0-.2-.2-.2h0Z"/>
  <path class="cls-6" d="M49.9,62.4c.2,0,.2.2.4,1.3,0,.3.1.7.2,1.1.4,1.9.5,2.3.7,2.5.5.7,1.2,1.1,1.5,1.2.5.3,1,.4,1.5.5.1,0,.2.1.2.2,0,.1,0,.2-.2.2-.1,0-.2,0-.3,0-1.2.3-2,1.2-2.2,1.4-.5.6-.7,1.3-.9,1.8-.2.7-.3,1.3-.3,1.7,0,.5,0,.9,0,1.1,0,.4,0,.5-.2.6,0,0,0,0,0,0-.2,0-.2-.2-.4-1,0-.4-.1-.8-.2-1.4-.3-1.4-.5-2-.7-2.5-.3-.6-.9-1-1.8-1.3-.4-.1-.8-.2-1.2-.3-.1,0-.2-.1-.2-.2,0-.1,0-.2.2-.2,0,0,.1,0,.2,0,.9-.3,1.6-.8,2.3-1.6.6-.8.9-1.7,1-2.1,0-.3.1-.6.2-.8.1-.8.1-1.4.1-1.7,0-.3,0-.5.2-.6,0,0,0,0,0,0M49.9,62s0,0,0,0c-.6,0-.6.7-.6,1,0,.3,0,.9-.1,1.7,0,.2,0,.4-.1.7-.1.4-.3,1.2-.9,1.9-.6.7-1.3,1.2-2,1.4,0,0-.1,0-.2,0-.3,0-.5.4-.5.7,0,.3.3.6.6.6.4,0,.8.1,1.1.2.7.3,1.2.7,1.5,1.1.2.4.4,1.1.7,2.4.1.5.2,1,.2,1.3h0c.2.9.2,1.4.8,1.4s0,0,0,0c.6,0,.6-.7.6-1,0-.3,0-.6,0-1.1,0-.4.1-1,.3-1.6.2-.5.3-1,.8-1.6.2-.2.9-1,2-1.3.1,0,.2,0,.3,0,.3,0,.6-.3.6-.7,0-.3-.2-.6-.6-.7-.5,0-1-.2-1.4-.5-.3-.2-.9-.5-1.3-1.1-.1-.2-.3-.5-.6-2.3,0-.4-.2-.8-.2-1.1h0c-.1-.6-.2-.9-.2-1.1-.1-.4-.3-.5-.6-.5h0Z"/>
  <path class="cls-6" d="M66.1,28.6c-.2,0-.5-.1-.7-.2-.1,0-.4-.2-.6-.5,0,0-.1-.2-.3-1.1,0-.2,0-.4,0-.5-.1-.6-.1-.7-.4-.7-.2,0-.2.2-.2.4,0,.2,0,.4,0,.8,0,0,0,.2,0,.3,0,.2-.1.6-.4.9-.3.3-.6.6-1,.7,0,0,0,0-.1,0-.1,0-.2.1-.2.2,0,.1,0,.2.2.2.2,0,.4,0,.5.1.4.1.6.3.7.5.1.2.2.5.3,1.1,0,.2,0,.5.1.6,0,.4,0,.6.3.6h0c.2,0,.2-.2.2-.4,0-.1,0-.3,0-.5,0-.2,0-.4.1-.7,0-.2.2-.5.4-.8,0-.1.4-.5.9-.6,0,0,.1,0,.1,0,.1,0,.2-.1.2-.2s0-.2-.2-.2h0Z"/>
  <path class="cls-6" d="M69.9,25.2c-.1,0-.3,0-.4-.1,0,0-.3-.1-.4-.3,0,0,0,0-.2-.7,0-.1,0-.2,0-.3,0-.4,0-.5-.3-.5-.2,0-.2.2-.2.3,0,0,0,.3,0,.5,0,0,0,.1,0,.2,0,.1,0,.3-.3.5-.2.2-.4.3-.6.4,0,0,0,0,0,0-.1,0-.2.1-.2.2,0,.1,0,.2.2.2.1,0,.2,0,.3,0,.2,0,.3.2.4.3,0,.1.1.3.2.7,0,.2,0,.3,0,.4,0,.2,0,.4.3.4h0c.2,0,.2-.2.2-.3,0,0,0-.2,0-.3,0-.1,0-.3,0-.5,0-.1,0-.3.2-.5,0,0,.2-.3.5-.4,0,0,0,0,0,0,.1,0,.2-.1.2-.2s0-.2-.2-.2h0Z"/>
  <path class="cls-6" d="M25.3,28.6c-.1,0-.3,0-.4-.1,0,0-.3-.2-.4-.3,0,0,0-.1-.2-.7,0-.1,0-.2,0-.3,0-.4,0-.6-.3-.5-.2,0-.2.2-.2.3s0,.3,0,.5c0,0,0,.1,0,.2,0,.1,0,.4-.3.6-.2.2-.4.4-.6.5,0,0,0,0,0,0-.1,0-.2.1-.2.2,0,.1,0,.2.2.2.1,0,.2,0,.3,0,.2,0,.4.2.4.4,0,.1.1.3.2.8,0,.2,0,.3,0,.4,0,.3,0,.4.3.4h0c.2,0,.2-.2.2-.3,0,0,0-.2,0-.4,0-.1,0-.3,0-.5,0-.2.1-.3.2-.5,0,0,.3-.3.6-.4,0,0,0,0,0,0,.1,0,.2-.1.2-.2,0-.1,0-.2-.2-.2Z"/>
</svg>