<svg width="98" height="80" viewBox="0 0 98 80" fill="none" xmlns="http://www.w3.org/2000/svg">
<g clip-path="url(#clip0_43_3836)">
<path d="M49.0585 76.7363C69.3474 76.7363 85.7948 60.2889 85.7948 40C85.7948 19.7112 69.3474 3.26379 49.0585 3.26379C28.7696 3.26379 12.3223 19.7112 12.3223 40C12.3223 60.2889 28.7696 76.7363 49.0585 76.7363Z" fill="white"/>
<path d="M49.0592 79.1003C27.4994 79.1003 9.95898 61.5599 9.95898 40C9.95898 18.4402 27.4994 0.89978 49.0592 0.89978C70.6191 0.89978 88.1595 18.4402 88.1595 40C88.1595 61.5599 70.6191 79.1003 49.0592 79.1003ZM49.0592 5.62633C30.106 5.62633 14.6855 21.0468 14.6855 40C14.6855 58.9533 30.106 74.3738 49.0592 74.3738C68.0125 74.3738 83.433 58.9533 83.433 40C83.433 21.0468 68.0125 5.62633 49.0592 5.62633Z" fill="white"/>
<path d="M49.0585 76.7362C69.3474 76.7362 85.7948 60.2888 85.7948 39.9999C85.7948 19.7111 69.3474 3.26367 49.0585 3.26367C28.7696 3.26367 12.3223 19.7111 12.3223 39.9999C12.3223 60.2888 28.7696 76.7362 49.0585 76.7362Z" fill="white"/>
<path d="M49.0587 78.5372C27.809 78.5372 10.5215 61.2496 10.5215 40C10.5215 18.7503 27.809 1.46277 49.0587 1.46277C70.3083 1.46277 87.5959 18.7503 87.5959 40C87.5959 61.2496 70.3083 78.5372 49.0587 78.5372ZM49.0587 5.06318C29.7952 5.06318 14.1219 20.735 14.1219 40C14.1219 59.2649 29.7938 74.9367 49.0587 74.9367C68.3236 74.9367 83.9955 59.2649 83.9955 40C83.9955 20.735 68.3221 5.06318 49.0587 5.06318Z" fill="#30B7AD"/>
<path d="M49.0586 80C27.0018 80 9.05859 62.0553 9.05859 40C9.05859 17.9447 27.0018 0 49.0586 0C71.1153 0 89.0586 17.9447 89.0586 40C89.0586 62.0553 71.1139 80 49.0586 80ZM49.0586 6.52602C30.6008 6.52602 15.5846 21.5422 15.5846 40C15.5846 58.4578 30.6008 73.474 49.0586 73.474C67.5164 73.474 82.5326 58.4578 82.5326 40C82.5326 21.5422 67.5164 6.52602 49.0586 6.52602Z" fill="white"/>
<path d="M49.0592 79.1003C27.4994 79.1003 9.95898 61.5599 9.95898 40C9.95898 18.4402 27.4994 0.89978 49.0592 0.89978C70.6191 0.89978 88.1595 18.4402 88.1595 40C88.1595 61.5599 70.6191 79.1003 49.0592 79.1003ZM49.0592 5.62633C30.106 5.62633 14.6855 21.0468 14.6855 40C14.6855 58.9533 30.106 74.3738 49.0592 74.3738C68.0125 74.3738 83.433 58.9533 83.433 40C83.433 21.0468 68.0125 5.62633 49.0592 5.62633Z" fill="white"/>
<path d="M49.0587 78.5372C27.809 78.5372 10.5215 61.2496 10.5215 40C10.5215 18.7503 27.809 1.46277 49.0587 1.46277C70.3083 1.46277 87.5959 18.7503 87.5959 40C87.5959 61.2496 70.3083 78.5372 49.0587 78.5372ZM49.0587 5.06318C29.7952 5.06318 14.1219 20.735 14.1219 40C14.1219 59.2649 29.7938 74.9367 49.0587 74.9367C68.3236 74.9367 83.9955 59.2649 83.9955 40C83.9955 20.735 68.3221 5.06318 49.0587 5.06318Z" fill="#49A9C5"/>
<path d="M49.0597 1.46277C70.3093 1.46277 87.5968 18.7503 87.5968 40C87.5968 61.2496 70.3093 78.5372 49.0597 78.5372C27.81 78.5372 10.5225 61.2496 10.5225 40C10.5225 18.7503 27.81 1.46277 49.0597 1.46277ZM49.0597 74.9367C68.3231 74.9367 83.9964 59.2649 83.9964 40C83.9964 20.735 68.3231 5.06318 49.0597 5.06318C29.7962 5.06318 14.1229 20.735 14.1229 40C14.1229 59.2649 29.7947 74.9367 49.0597 74.9367ZM49.0597 0.787964C27.4381 0.787964 9.84766 18.3784 9.84766 40C9.84766 61.6215 27.4381 79.212 49.0597 79.212C70.6812 79.212 88.2717 61.6215 88.2717 40C88.2717 18.3784 70.6812 0.787964 49.0597 0.787964ZM49.0597 74.2619C30.1681 74.2619 14.7991 58.8929 14.7991 40.0014C14.7991 21.1099 30.1681 5.73945 49.0597 5.73945C67.9512 5.73945 83.3202 21.1085 83.3202 40C83.3202 58.8915 67.9512 74.2605 49.0597 74.2605V74.2619Z" fill="white"/>
<path d="M69.7427 15.2279C68.7989 14.9221 67.4816 14.6324 65.8189 14.6795C65.8189 14.6795 65.7468 14.6824 65.6645 14.6854C64.3105 14.7368 55.7718 15.1499 50.6674 18.4901C47.6433 20.469 45.1293 22.3493 45.1293 22.3493C41.9832 25.1323 40.1058 25.2058 36.3657 25.3513C34.3546 25.4293 31.8524 25.5278 28.4519 26.0805C23.8474 26.8362 20.2881 28.496 17.8712 31.0144C17.6992 31.1937 17.6095 31.4349 17.6227 31.6833C17.6492 32.1773 17.8903 32.4919 18.0344 32.6801C18.1005 32.7653 18.1299 32.805 18.1432 32.8477C18.1608 32.905 18.1535 32.9521 18.152 32.9653C18.1226 33.2667 18.1858 35.7718 17.9182 35.7909C17.8829 35.7939 17.7815 35.588 17.5801 35.1793C17.361 34.7339 17.3655 34.7177 17.3052 34.6324C17.2478 34.5531 16.8788 34.0297 16.376 34.0855C15.9791 34.1297 15.6601 34.431 15.5924 34.825C15.566 34.9823 15.5381 35.1485 15.5101 35.3249C15.4234 35.8894 15.0897 36.2849 14.6677 36.7848C14.0605 37.5022 13.3064 38.3946 13.227 39.975C13.227 39.975 13.227 39.975 13.227 39.9765C13.224 40.0411 13.202 42.5184 13.1917 44.5237C13.1682 49.2634 13.174 49.2737 13.3431 49.5589C13.3799 49.6207 13.4196 49.6883 13.4798 49.7603C15.3778 52.0244 22.0905 51.6921 22.0905 51.6921C30.194 51.2408 28.0888 52.1008 33.4034 51.5142C42.6154 50.4969 44.3281 48.4225 48.374 49.8706C49.8427 50.3969 51.254 51.2555 53.2475 50.9277C54.4457 50.7307 57.0979 49.9 58.2373 49.6942C58.2475 49.6927 59.1679 49.5266 59.1679 49.5266C59.3575 45.785 59.3649 45.6542 59.3649 45.6542C59.7986 41.9891 60.6336 37.4316 63.2828 34.7162C63.8209 34.1649 64.6854 33.471 65.7527 33.2946C68.1388 32.9035 69.8985 36.2084 70.4484 38.3843C71.1526 41.1702 70.8674 44.4722 69.6648 47.4419C69.3678 48.174 68.9841 48.8547 68.5225 49.4663L68.4945 49.5031C67.9065 50.2852 67.6286 50.5425 67.5169 50.6248C68.6665 49.7853 71.2967 48.1108 75.0279 47.8124C77.5198 47.6139 79.5442 48.1064 80.7821 48.5166C81.5304 44.8221 82.2096 38.7445 80.3881 31.77C79.653 28.9576 78.3358 24.1326 74.3237 19.4546C72.6418 17.4934 70.9644 16.1173 69.7442 15.2279H69.7427ZM70.5351 17.9873C70.8203 18.2123 71.5995 18.8797 72.4522 19.7721C72.9726 20.3161 73.3769 20.7939 73.6489 21.1276C73.5945 21.2349 73.5386 21.3422 73.4872 21.451C73.4445 21.5378 73.4049 21.6216 73.3652 21.7054C73.127 22.2082 72.9506 22.6154 72.8109 22.9388C72.6624 23.2814 72.5095 23.6342 72.4243 23.7503C72.2699 23.7812 71.8347 23.765 71.4128 23.7503C71.4128 23.7503 71.3114 23.743 69.9691 23.7151C69.2149 23.6989 59.1223 24.0297 45.2808 24.7074C47.164 22.7815 50.2337 20.1911 54.6163 18.4548C55.4013 18.1446 56.1438 17.8932 56.8597 17.686C57.5125 17.4978 58.1358 17.3405 58.743 17.2082C59.3722 17.0714 61.0629 16.7054 62.8947 16.6054C64.9206 16.4937 68.4019 16.3025 70.5366 17.9873H70.5351ZM35.7321 33.1873C35.6954 33.3431 35.5763 33.6754 35.2014 34.287C33.621 36.8597 32.6154 37.1876 30.3499 37.414L30.0514 37.4434C29.4545 37.5037 28.0785 37.6433 27.6933 37.5375C27.4287 37.2287 26.967 35.785 27.3537 34.6751C27.5757 34.04 28.0211 33.7165 28.7592 33.6563C29.8706 33.568 30.885 33.4622 31.7803 33.3696C33.371 33.2049 35.1588 33.0197 35.7321 33.1858V33.1873ZM24.0899 37.3375C22.6463 37.6448 21.3099 37.4125 20.76 36.6186C20.5557 36.3246 20.4572 35.9497 20.3969 35.7159C20.272 35.2367 20.0103 34.2296 20.4557 33.7783C20.7262 33.5034 21.0379 33.6577 22.8624 33.7783C24.0473 33.8562 24.2179 33.8106 24.4178 33.9841C25.2058 34.6663 24.2869 36.8759 24.0899 37.3361V37.3375ZM18.6945 43.1358C18.7739 42.9741 19.1929 42.3243 19.4751 41.3643C19.5104 41.2452 19.5354 41.1467 19.5516 41.0835C21.5628 41.0526 23.2005 40.9938 24.3222 40.9453C26.5657 40.8483 28.815 40.9585 31.0614 40.9453C33.3152 40.9306 33.5798 41.2673 34.356 42.7007L34.7045 43.3431C35.7674 45.297 36.7715 47.1435 36.3349 47.8344C35.391 49.3267 27.7374 48.9003 25.222 48.7606C22.0935 48.5857 17.9653 47.7639 17.0935 47.2684C17.0479 46.4981 18.2358 44.0753 18.6959 43.1388L18.6945 43.1358ZM58.0564 31.2334C53.94 34.1149 52.5595 34.2384 46.2996 34.7942L45.169 34.8956C44.0444 34.997 43.2799 34.9397 42.6742 34.8177C42.3566 34.753 42.1729 34.6545 41.5128 34.4795C40.3264 34.1649 40.0794 34.2017 40.0573 34.0885C39.9779 33.6871 42.9962 32.5448 46.4584 31.9376C47.486 31.7568 48.3681 31.7024 49.5325 31.5554C54.0811 30.982 56.1835 30.7159 58.0564 31.2349V31.2334Z" fill="url(#paint0_linear_43_3836)"/>
<path d="M66.1799 14.6751C67.6736 14.6751 68.8703 14.9456 69.745 15.2278C70.9653 16.1187 72.6427 17.4933 74.3246 19.4545C78.3366 24.1326 79.6539 28.9576 80.3889 31.77C82.2105 38.7444 81.5313 44.8221 80.783 48.5166C79.7406 48.1711 78.1396 47.7668 76.1711 47.7668C75.8035 47.7668 75.4213 47.7815 75.0288 47.8124C71.2975 48.1093 68.6674 49.7853 67.5177 50.6248C67.6295 50.5424 67.9073 50.2852 68.4954 49.503L68.5233 49.4663C68.985 48.8547 69.3687 48.174 69.6656 47.4419C70.8682 44.4722 71.1549 41.1702 70.4492 38.3843C69.9288 36.3275 68.3293 33.2622 66.1402 33.2622C66.0138 33.2622 65.8844 33.2725 65.7536 33.2946C64.6862 33.4695 63.8218 34.1634 63.2837 34.7162C60.6359 37.4316 59.7994 41.9876 59.3657 45.6542C59.3657 45.6542 59.3569 45.7836 59.1687 49.5266C59.1687 49.5266 58.2484 49.6927 58.2381 49.6942C57.0987 49.8985 54.4466 50.7306 53.2484 50.9276C52.9426 50.9776 52.6515 50.9997 52.3722 50.9997C50.8226 50.9997 49.6201 50.316 48.3763 49.8706C47.3869 49.5163 46.5386 49.3737 45.6845 49.3737C43.0441 49.3737 40.3654 50.7468 33.4057 51.5142C31.9444 51.6759 31.0446 51.7274 30.339 51.7274C29.057 51.7274 28.416 51.5554 26.2225 51.5554C25.2316 51.5554 23.9217 51.5907 22.0929 51.6921C22.0929 51.6921 21.7459 51.7097 21.1872 51.7097C19.2893 51.7097 14.9494 51.5113 13.4822 49.7618C13.4219 49.6898 13.3822 49.6221 13.3454 49.5604C13.1764 49.2752 13.169 49.2649 13.194 44.5251C13.2043 42.5198 13.2264 40.0426 13.2293 39.9779C13.2293 39.9779 13.2293 39.9779 13.2293 39.9764C13.3087 38.396 14.0643 37.5036 14.67 36.7862C15.092 36.2863 15.4272 35.8909 15.5124 35.3263C15.5404 35.1499 15.5668 34.9853 15.5948 34.8265C15.6624 34.4325 15.9814 34.1311 16.3784 34.087C16.4034 34.084 16.4298 34.0826 16.4548 34.0826C16.9179 34.0826 17.2531 34.5574 17.3075 34.6339C17.3678 34.7192 17.3634 34.7353 17.5824 35.1808C17.7824 35.588 17.8838 35.7924 17.9206 35.7924C18.1896 35.7733 18.1249 33.2681 18.1543 32.9667C18.1543 32.9535 18.1631 32.905 18.1455 32.8491C18.1323 32.8065 18.1029 32.7668 18.0367 32.6815C17.8926 32.4933 17.6515 32.1787 17.6251 31.6848C17.6118 31.4363 17.7015 31.1952 17.8735 31.0158C20.2905 28.4975 23.8512 26.8377 28.4542 26.082C31.8547 25.5277 34.3584 25.4307 36.3681 25.3528C40.1082 25.2072 41.9855 25.1337 45.1317 22.3507C45.1317 22.3507 47.6471 20.4704 50.6698 18.4916C55.7741 15.1514 64.3113 14.7368 65.6668 14.6868C65.7491 14.6839 65.8212 14.6809 65.8212 14.6809C65.9432 14.678 66.0623 14.6751 66.1799 14.6751ZM45.2816 24.7074C58.8115 24.0458 68.76 23.715 69.9038 23.715C69.9303 23.715 69.9523 23.715 69.9685 23.715C71.3122 23.743 71.4122 23.7503 71.4122 23.7503C71.6562 23.7591 71.9047 23.768 72.1017 23.768C72.2443 23.768 72.359 23.7636 72.4251 23.7503C72.5104 23.6327 72.6633 23.2799 72.8118 22.9388C72.9514 22.6168 73.1279 22.2081 73.366 21.7053C73.4057 21.623 73.4454 21.5377 73.488 21.451C73.5395 21.3422 73.5954 21.2349 73.6498 21.1276C73.3778 20.7924 72.9735 20.316 72.4531 19.7721C71.6004 18.8797 70.8212 18.2122 70.536 17.9873C69.0055 16.7803 66.7841 16.5363 64.9009 16.5363C64.157 16.5363 63.4675 16.5745 62.8941 16.6054C61.0623 16.7068 59.3716 17.0714 58.7424 17.2081C58.1337 17.3404 57.5104 17.4963 56.8591 17.6859C56.1431 17.8932 55.4007 18.1446 54.6157 18.4548C50.2331 20.1911 47.1634 22.7815 45.2802 24.7074M44.0937 34.9456C44.4128 34.9456 44.7685 34.9294 45.1714 34.8926L46.3019 34.7912C52.5618 34.2355 53.9423 34.1135 58.0588 31.2305C57.3604 31.0364 56.6298 30.9526 55.7536 30.9526C54.279 30.9526 52.3884 31.1908 49.5348 31.551C48.3704 31.698 47.4883 31.7524 46.4607 31.9332C42.9985 32.5419 39.9817 33.6827 40.0596 34.084C40.0817 34.1958 40.3301 34.1605 41.5151 34.4751C42.1752 34.6501 42.359 34.75 42.6765 34.8132C43.0661 34.8912 43.5204 34.9441 44.0937 34.9441M28.1675 37.5771C28.7453 37.5771 29.6112 37.4889 30.0523 37.4448L30.3507 37.4154C32.6148 37.189 33.6218 36.8597 35.2022 34.2884C35.5771 33.6768 35.6962 33.3446 35.733 33.1887C35.5742 33.1431 35.3228 33.124 35.0082 33.124C34.1864 33.124 32.9323 33.2534 31.7827 33.3725C30.8873 33.4651 29.8729 33.5695 28.7615 33.6592C28.0235 33.718 27.5765 34.0414 27.356 34.678C26.9694 35.788 27.431 37.2317 27.6956 37.5404C27.7956 37.5683 27.9647 37.5786 28.1675 37.5786M22.9073 37.4683C23.2837 37.4683 23.6836 37.4242 24.0908 37.3375C24.2878 36.8773 25.2067 34.6677 24.4187 33.9855C24.2187 33.8121 24.0482 33.8576 22.8632 33.7797C21.7885 33.7092 21.2387 33.6268 20.9138 33.6268C20.6859 33.6268 20.5683 33.6665 20.4566 33.7797C20.0111 34.2311 20.2728 35.2367 20.3978 35.7174C20.4581 35.9497 20.5566 36.3246 20.7609 36.6201C21.1564 37.189 21.9547 37.4683 22.9073 37.4683ZM30.1346 48.9223C32.9162 48.9223 35.7815 48.7077 36.3357 47.8315C36.7724 47.1405 35.7683 45.2955 34.7053 43.3401L34.3569 42.6977C33.5968 41.2937 33.3278 40.9409 31.199 40.9409C31.1549 40.9409 31.1079 40.9409 31.0623 40.9409C30.9167 40.9409 30.7712 40.9409 30.6271 40.9409C29.2261 40.9409 27.8235 40.9012 26.4225 40.9012C25.7227 40.9012 25.0229 40.9115 24.3231 40.9409C23.2014 40.9894 21.5636 41.0482 19.5524 41.0791C19.5363 41.1423 19.5113 41.2408 19.476 41.3598C19.1937 42.3199 18.7747 42.9697 18.6953 43.1314C18.2352 44.0693 17.0473 46.4907 17.0929 47.2611C17.9647 47.7565 22.0929 48.5783 25.2214 48.7533C26.2608 48.8106 28.1764 48.9179 30.1331 48.9179M66.1799 13.9988C66.0564 13.9988 65.93 14.0002 65.8021 14.0047C65.7712 14.0047 65.7094 14.0076 65.6418 14.0105C63.9835 14.0723 55.4522 14.553 50.3007 17.9256C47.5795 19.7059 45.0082 21.5892 44.6862 21.8465H44.6847C41.718 24.4678 40.0332 24.5339 36.3416 24.678C34.3113 24.7574 31.7856 24.8559 28.3454 25.416C23.5924 26.1952 19.9053 27.9226 17.3854 30.5483C17.0855 30.86 16.9267 31.2878 16.9503 31.72C16.9855 32.3875 17.3002 32.8285 17.4736 33.0579C17.4707 33.1608 17.4692 33.299 17.4678 33.496C17.4678 33.5798 17.4663 33.6871 17.4648 33.8091C17.1576 33.5489 16.8062 33.4063 16.4533 33.4063C16.4034 33.4063 16.3519 33.4092 16.3019 33.4151C15.6109 33.493 15.0464 34.0252 14.9273 34.7103C14.8994 34.8706 14.8729 35.0396 14.8435 35.219C14.7877 35.5821 14.5686 35.8556 14.1526 36.3481C13.516 37.1008 12.6442 38.1314 12.553 39.9367C12.553 39.9382 12.553 39.9412 12.553 39.9426C12.553 39.9529 12.553 39.9632 12.553 39.972C12.5471 40.294 12.5266 42.8315 12.5177 44.5177C12.5011 47.8021 12.5829 49.5966 12.7633 49.9015C12.8074 49.9764 12.8676 50.0779 12.9632 50.1911C14.5598 52.0964 18.7997 52.3816 21.1858 52.3816C21.7547 52.3816 22.1105 52.364 22.1252 52.364C23.7718 52.2728 25.1096 52.2272 26.2211 52.2272C27.4398 52.2272 28.1646 52.2816 28.8041 52.3287C29.2937 52.3654 29.7568 52.3993 30.3375 52.3993C31.1476 52.3993 32.1164 52.3316 33.4778 52.1817C37.2943 51.7597 39.8876 51.1467 41.7827 50.6997C43.391 50.319 44.5539 50.0455 45.683 50.0455C46.4916 50.0455 47.2752 50.1911 48.147 50.5027C48.4278 50.6027 48.7071 50.7159 49.0011 50.8365C49.9641 51.2275 51.0549 51.6715 52.3693 51.6715C52.6956 51.6715 53.0264 51.6436 53.3557 51.5907C54.0202 51.4819 55.0714 51.1967 56.0902 50.9217C56.9532 50.688 57.8456 50.4469 58.3572 50.3557L58.3778 50.3528C58.5042 50.3307 59.1849 50.2072 59.276 50.1911C59.5862 50.1411 59.8274 49.8809 59.8435 49.5589C60.0052 46.3701 60.0346 45.8056 60.0391 45.7115C60.4595 42.1552 61.2666 37.7521 63.7674 35.1867C64.2349 34.7074 64.9773 34.1061 65.8623 33.9606C65.955 33.9459 66.0491 33.937 66.1402 33.937C67.8559 33.937 69.3099 36.6348 69.7935 38.5489C70.4639 41.1996 70.189 44.3487 69.0379 47.1875C68.763 47.8653 68.4087 48.4945 67.9823 49.0591L67.9558 49.0943C67.3457 49.9044 67.1223 50.0764 67.112 50.0838C66.815 50.3058 66.7518 50.7277 66.9723 51.0261C67.1046 51.2055 67.309 51.2996 67.5163 51.2996C67.6545 51.2996 67.7941 51.2569 67.9132 51.1702C69.3951 50.0882 71.8415 48.7444 75.0788 48.4857C75.4389 48.4563 75.805 48.4431 76.1667 48.4431C77.6559 48.4431 79.1349 48.6842 80.5654 49.159C80.6345 49.1825 80.7065 49.1928 80.7785 49.1928C80.8962 49.1928 81.0138 49.162 81.1167 49.1017C81.2843 49.0047 81.4019 48.8415 81.4401 48.6518C82.6148 42.8565 82.4795 37.1199 81.0373 31.601C80.3346 28.912 79.0276 23.9076 74.8318 19.0164C73.4483 17.4037 71.8694 15.9453 70.1376 14.6839C70.0802 14.6412 70.0155 14.6089 69.9479 14.5868C68.7483 14.1987 67.478 14.0002 66.1755 14.0002L66.1799 13.9988ZM47.0502 23.9459C49.3819 21.8494 52.0047 20.2161 54.8656 19.0826C55.6021 18.7915 56.3152 18.546 57.0473 18.3343C57.6706 18.1534 58.2719 18.002 58.8865 17.8682C59.5054 17.7344 61.152 17.3772 62.9323 17.2787C63.4866 17.2478 64.1775 17.2096 64.9023 17.2096C67.2987 17.2096 69.0055 17.6374 70.1184 18.5151C70.4022 18.74 71.1549 19.3884 71.9664 20.2366C72.2708 20.5542 72.5663 20.8835 72.85 21.2187C72.8177 21.2849 72.7868 21.351 72.7559 21.4157C72.5133 21.9273 72.3369 22.336 72.1943 22.6653C72.1414 22.7874 72.0708 22.9506 72.0076 23.0917C71.84 23.0888 71.6386 23.0829 71.4431 23.0755C71.324 23.0696 70.7991 23.0579 69.9847 23.0402C69.9641 23.0402 69.9376 23.0402 69.9053 23.0402C68.7042 23.0402 59.3657 23.3578 47.0502 23.9473V23.9459ZM41.8032 33.8562C42.8691 33.4578 44.5554 32.955 46.5768 32.6007C47.2105 32.4889 47.8059 32.4257 48.4366 32.3581C48.8085 32.3184 49.1922 32.2772 49.6186 32.2243C52.453 31.8671 54.3216 31.6304 55.7521 31.6304C55.9182 31.6304 56.0785 31.6333 56.2343 31.6406C53.2822 33.496 51.6107 33.6445 46.2431 34.1208L45.1111 34.2222C44.7465 34.2546 44.4039 34.2722 44.0937 34.2722C43.6189 34.2722 43.1984 34.234 42.8088 34.1561C42.6883 34.1326 42.5868 34.0988 42.4325 34.0488C42.2766 33.9973 42.0855 33.9356 41.8018 33.8576L41.8032 33.8562ZM28.1132 36.9023C27.9456 36.4731 27.7574 35.5763 27.9926 34.8985C28.1058 34.5721 28.2778 34.3737 28.8144 34.331C29.9303 34.2414 30.9461 34.137 31.8429 34.0444L31.7856 33.371L31.8547 34.0429C32.8309 33.9414 33.9203 33.8297 34.7053 33.8032C34.6803 33.8444 34.6539 33.8885 34.6259 33.9341C33.1925 36.2672 32.3898 36.5319 30.2831 36.7436L29.9847 36.773C29.5686 36.8156 28.7086 36.9023 28.1675 36.9023C28.1484 36.9023 28.1308 36.9023 28.1132 36.9023ZM20.9094 34.3016C20.9094 34.3016 20.9123 34.3016 20.9138 34.3016C21.0446 34.3016 21.2534 34.3207 21.543 34.3487C21.8503 34.3781 22.2708 34.4178 22.8191 34.4531C23.119 34.4722 23.3543 34.4839 23.5424 34.4942C23.7306 34.503 23.91 34.5133 24.0011 34.5236C24.1187 34.7118 24.104 35.4719 23.6071 36.7391C23.366 36.7744 23.1323 36.7921 22.9073 36.7921C22.1531 36.7921 21.5577 36.5833 21.3152 36.2334C21.1784 36.0379 21.102 35.7424 21.0505 35.5469C20.8315 34.7074 20.8697 34.406 20.9094 34.3016ZM20.064 41.7494C21.5063 41.723 22.947 41.6789 24.3525 41.6186C24.97 41.5921 25.6477 41.5789 26.4225 41.5789C27.1179 41.5789 27.8279 41.5892 28.5145 41.5995C29.2055 41.6098 29.9214 41.6201 30.6256 41.6201C30.7727 41.6201 30.9197 41.6201 31.0652 41.6201H31.1975C33.0014 41.6201 33.0882 41.7788 33.7615 43.0226L34.1099 43.6651C34.6127 44.5898 35.0876 45.4616 35.4051 46.1981C35.8094 47.1346 35.7683 47.4331 35.7565 47.4801C35.6859 47.5683 34.9861 48.2475 30.1331 48.2475C28.1955 48.2475 26.2857 48.1417 25.261 48.0843C22.4854 47.9285 19.107 47.2772 17.8324 46.8465C17.9617 46.379 18.3278 45.4145 19.2996 43.4328C19.3099 43.4107 19.329 43.3798 19.3525 43.3372C19.4951 43.0843 19.8127 42.5154 20.0611 41.7494H20.064Z" fill="white"/>
<path d="M7.65599 50.9777C6.37402 49.8265 5.09057 48.6754 3.80859 47.5243C18.7762 45.3793 33.738 43.2152 48.6969 41.0321C64.0306 38.7945 79.3628 36.5348 94.6936 34.2561C93.6763 36.5657 92.6589 38.8753 91.6401 41.1835C92.6575 43.4343 93.6748 45.6851 94.6936 47.9359C80.4155 49.9353 66.1403 51.9494 51.868 53.9782C38.3132 55.9042 24.7598 57.8433 11.2064 59.7957C10.6742 59.5398 8.85123 58.5813 7.84564 56.3908C6.66217 53.8151 7.48545 51.4437 7.65746 50.9791L7.65599 50.9777Z" fill="white"/>
<path d="M11.1533 60.144L11.0607 60.0999C10.158 59.6647 8.50115 58.6239 7.53967 56.5318C6.47675 54.2193 6.93544 52.0787 7.26475 51.0805L3.04688 47.2934L3.76284 47.1905C18.6835 45.0514 33.7864 42.8667 48.6511 40.6983C63.9128 38.471 79.3877 36.1908 94.6464 33.9223L95.2521 33.8326L92.0134 41.1834L95.1904 48.2093L94.7434 48.2725C80.5447 50.2616 66.1371 52.2934 51.9178 54.3149C38.3924 56.2363 24.7126 58.1946 11.2577 60.1323L11.1563 60.147L11.1533 60.144ZM4.57143 47.755L8.05129 50.8791L7.9719 51.0937C7.74255 51.7127 7.07951 53.9135 8.15126 56.2466C8.99219 58.0785 10.4241 59.0238 11.2606 59.4442C24.6832 57.511 38.3277 55.5586 51.8193 53.6415C65.8887 51.6421 80.1448 49.6309 94.1995 47.6624L91.2709 41.1849L94.1377 34.6795C79.0745 36.9185 63.8055 39.1678 48.7467 41.3657C34.1201 43.5004 19.2612 45.6498 4.5729 47.7565L4.57143 47.755Z" fill="white"/>
<path d="M10.7182 60.8087C9.72001 60.3279 7.88672 59.1768 6.82233 56.8598C5.80204 54.6399 6.04756 52.5655 6.36805 51.3335L1.26367 46.7525L3.64826 46.4115C18.5674 44.2724 33.6688 42.0892 48.5336 39.9192C63.7968 37.692 79.2716 35.4117 94.5259 33.1433L96.5445 32.8434L92.872 41.1777L96.3372 48.8416L94.8479 49.0504C80.6006 51.0454 66.1931 53.0786 52.0252 55.0913C38.5013 57.0127 24.8214 58.971 11.3666 60.9087L11.027 60.9572L10.7182 60.8087Z" fill="white"/>
<path d="M10.9734 61.3055L10.572 61.1115C9.53264 60.6116 7.62437 59.412 6.51588 56.9995C5.52499 54.8427 5.66613 52.8228 5.99103 51.4482L0.5 46.5202L3.60056 46.0762C18.5535 43.9327 33.655 41.7481 48.4859 39.584C63.7402 37.3582 79.2136 35.078 94.4782 32.808L97.101 32.4185L93.2418 41.1762L96.8305 49.1135L94.8958 49.3841C80.6117 51.3849 66.2042 53.4167 52.0731 55.4249C38.5021 57.3538 24.8223 59.3106 11.4144 61.2423L10.9734 61.3055ZM10.8646 60.5043L11.0807 60.6087L11.3189 60.5749C24.7267 58.6431 38.408 56.6863 51.979 54.7575C66.1101 52.7492 80.5176 50.716 94.8031 48.7166L95.8455 48.5711L92.5038 41.1806L95.991 33.2682L94.5782 33.4784C79.3136 35.7484 63.8387 38.0271 48.5844 40.2544C33.7535 42.4199 18.6505 44.6031 3.69759 46.7466L2.02749 46.9862L6.74669 51.2218L6.69524 51.4202C6.36592 52.6875 6.17333 54.6355 7.1304 56.7201C8.15069 58.9415 9.909 60.0456 10.8661 60.5058L10.8646 60.5043Z" fill="white"/>
<path d="M7.65599 50.9777C6.37402 49.8265 5.09057 48.6754 3.80859 47.5243C18.7762 45.3793 33.738 43.2152 48.6969 41.0321C64.0306 38.7945 79.3628 36.5348 94.6936 34.2561C93.6763 36.5657 92.6589 38.8753 91.6401 41.1835C92.6575 43.4343 93.6748 45.6851 94.6936 47.9359C80.4155 49.9353 66.1403 51.9494 51.868 53.9782C38.3132 55.9042 24.7598 57.8433 11.2064 59.7957C10.6742 59.5398 8.85123 58.5813 7.84564 56.3908C6.66217 53.8151 7.48545 51.4437 7.65746 50.9791L7.65599 50.9777Z" fill="white"/>
<path d="M11.1533 60.144L11.0607 60.0999C10.158 59.6647 8.50115 58.6239 7.53967 56.5318C6.47675 54.2193 6.93544 52.0787 7.26475 51.0805L3.04688 47.2934L3.76284 47.1905C18.6835 45.0514 33.7864 42.8667 48.6511 40.6983C63.9128 38.471 79.3877 36.1908 94.6464 33.9223L95.2521 33.8326L92.0134 41.1834L95.1904 48.2093L94.7434 48.2725C80.5447 50.2616 66.1371 52.2934 51.9178 54.3149C38.3924 56.2363 24.7126 58.1946 11.2577 60.1323L11.1563 60.147L11.1533 60.144ZM4.57143 47.755L8.05129 50.8791L7.9719 51.0937C7.74255 51.7127 7.07951 53.9135 8.15126 56.2466C8.99219 58.0785 10.4241 59.0238 11.2606 59.4442C24.6832 57.511 38.3277 55.5586 51.8193 53.6415C65.8887 51.6421 80.1448 49.6309 94.1995 47.6624L91.2709 41.1849L94.1377 34.6795C79.0745 36.9185 63.8055 39.1678 48.7467 41.3657C34.1201 43.5004 19.2612 45.6498 4.5729 47.7565L4.57143 47.755Z" fill="white"/>
<path d="M15.5492 49.8633L12.9323 50.2367C12.1238 50.8777 11.2387 51.9347 11.449 53.4049C11.668 54.9338 12.2487 55.3308 12.7574 55.5278L15.2861 55.1661L15.1979 57.805L12.4781 58.1932C10.4787 57.7433 9.26137 56.1614 8.95558 54.0165C8.80856 52.9873 8.95999 51.6304 9.62156 50.3808L7.06055 48.421L15.6036 47.2008L15.5492 49.8647V49.8633Z" fill="#26778E"/>
<path d="M18.4731 49.115L15.9121 47.1553L21.0724 46.4172L20.8298 54.3737L24.2993 53.8783L24.2552 56.5099L18.2276 57.3714L18.4731 49.115Z" fill="#26778E"/>
<path d="M31.857 47.533L28.2992 48.0417L28.211 49.5251L30.7397 49.1634L30.6794 51.3628L28.1801 51.72L28.1257 53.3328L31.8011 52.808L31.7276 55.444L25.5089 56.3334L25.7544 48.077L23.1934 46.1173L31.8982 44.8735L31.8585 47.5345L31.857 47.533Z" fill="#26778E"/>
<path d="M40.5932 54.1752L37.8881 54.5619L37.6029 52.5624L35.5005 52.8638L35.0948 54.9617L32.3162 55.3587L34.5317 46.82L31.9707 44.8603L38.4835 43.9297L40.5932 54.1752ZM36.8193 47.0935L36.5988 47.1258L35.849 51.0144L37.3485 50.7997L36.8193 47.0949V47.0935Z" fill="#26778E"/>
<path d="M46.5566 48.2373L46.733 42.7506L49.1441 42.4066L48.8133 53.002L46.3728 53.3505L43.9441 48.3269L43.7118 53.7312L41.3155 54.0738L41.561 45.8174L39 43.8577L43.9985 43.1432L46.5566 48.2387V48.2373Z" fill="#26778E"/>
<path d="M57.8378 43.8194L54.28 44.3281L54.2212 45.9115L56.7058 45.5557L56.6426 48.055L54.158 48.4093L54.0169 52.2552L51.4882 52.6169L51.7749 44.3384L49.2168 42.3934L57.8922 41.1541L57.8378 43.818V43.8194Z" fill="#26778E"/>
<path d="M63.0208 46.379L62.9282 50.9835L60.3995 51.3452L60.645 43.0888L58.084 41.129L65.6862 40.0426C66.3874 40.5425 66.802 41.3378 66.9505 42.3831C67.1122 43.5151 66.7932 44.5369 65.9802 45.4631L67.9723 50.2646L65.2966 50.6468L63.6838 46.2864L63.0222 46.3804L63.0208 46.379ZM63.1428 42.9256L63.0502 44.6942L64.1969 44.5295C64.4806 44.0988 64.5733 43.5901 64.4895 43.002C64.4703 42.8697 64.4571 42.7815 64.4365 42.7389L63.1428 42.9241V42.9256Z" fill="#26778E"/>
<path d="M74.8804 41.3834L71.3226 41.8921L71.2344 43.3755L73.7631 43.0138L73.7028 45.2131L71.2036 45.5704L71.1492 47.1832L74.8246 46.6583L74.751 49.2943L68.5323 50.1837L68.7778 41.9273L66.2168 39.9676L74.9216 38.7239L74.8819 41.3849L74.8804 41.3834Z" fill="#26778E"/>
<path d="M83.6166 48.027L80.9115 48.4137L80.6263 46.4143L78.524 46.7142L78.1182 48.8121L75.3396 49.209L77.5552 40.6704L74.9941 38.7106L81.5069 37.78L83.6166 48.0255V48.027ZM79.8427 40.9438L79.6222 40.9747L78.8724 44.8632L80.372 44.6486L79.8427 40.9438Z" fill="#26778E"/>
<path d="M87.5919 42.6727L86.9744 42.7609L86.8362 47.5668L84.337 47.9241L84.5825 39.6677L82.0215 37.708L87.1964 36.9685L87.0641 40.2425L87.5787 40.169L89.0782 36.6995L92.1362 36.2628L89.7633 40.9688L92.0553 46.8229L89.2767 47.2199L87.5919 42.6742V42.6727Z" fill="#26778E"/>
<path d="M31.3579 63.477L29.1497 63.8049L28.8909 64.8207L27.9941 64.9545L29.3041 60.1398L30.2023 60.006L32.831 64.2342L31.9003 64.3723L31.3579 63.477ZM30.9374 62.7802L29.8671 60.9983L29.3482 63.0154L30.9359 62.7787L30.9374 62.7802Z" fill="white"/>
<path d="M33.0124 60.6763L34.3077 63.1697L34.8016 60.4102L35.647 60.2838L34.8443 63.9342L33.9783 64.0621L32.1348 60.8116L33.0124 60.6749V60.6763Z" fill="white"/>
<path d="M38.6328 63.1535C38.3917 63.3534 38.1079 63.4887 37.8051 63.5342C37.2435 63.618 36.7436 63.3622 36.6378 62.6522L36.3834 60.9468L35.8998 61.0188L35.8027 60.4058L36.2938 60.3322L36.1526 59.3825L36.9847 59.259L37.1259 60.2088L38.1138 60.0617L38.205 60.6748L37.217 60.8218L37.4478 62.3787C37.4964 62.708 37.6492 62.7977 37.8742 62.7639C38.0168 62.7433 38.1697 62.6669 38.3432 62.5492L38.6313 63.1535H38.6328Z" fill="white"/>
<path d="M42.3584 61.0482C42.5142 62.1009 41.885 62.9197 40.8059 63.0814C39.715 63.2432 38.8726 62.6433 38.7168 61.5907C38.561 60.544 39.1931 59.731 40.284 59.5692C41.3631 59.409 42.2025 60.0029 42.3584 61.0497V61.0482ZM39.5651 61.4775C39.6577 62.0979 40.1208 62.464 40.7015 62.3772C41.2705 62.292 41.6071 61.8068 41.5145 61.1864C41.4219 60.566 40.9588 60.1999 40.3898 60.2852C39.8091 60.3719 39.4725 60.8571 39.5636 61.4775H39.5651Z" fill="white"/>
<path d="M44.5209 60.9513L44.0739 61.5849L44.2165 62.5405L43.3771 62.6655L42.6641 57.8742L43.5035 57.7493L43.9166 60.5264L45.1236 58.8813L46.0925 58.7372L45.0119 60.2574L46.6835 62.173L45.6823 62.3215L44.5209 60.9498V60.9513Z" fill="white"/>
<path d="M50.1513 59.8898C50.3087 60.9424 49.678 61.7628 48.5989 61.923C47.508 62.0847 46.6656 61.4849 46.5098 60.4323C46.3539 59.3855 46.9861 58.5725 48.077 58.4108C49.1546 58.2506 49.9955 58.8445 50.1513 59.8912V59.8898ZM47.358 60.3176C47.4507 60.938 47.9138 61.3041 48.4945 61.2173C49.062 61.1335 49.4001 60.6469 49.3075 60.0265C49.2149 59.4061 48.7518 59.04 48.1828 59.1238C47.6021 59.2106 47.264 59.6957 47.3566 60.3161L47.358 60.3176Z" fill="white"/>
<path d="M53.2858 57.6669L53.3681 58.2226L51.798 60.713L53.7489 60.4293L53.8503 61.1144L50.8527 61.554L50.7704 60.9982L52.3405 58.5078L50.5057 58.7739L50.4043 58.0962L53.2843 57.6683L53.2858 57.6669Z" fill="white"/>
<path d="M60.0035 57.9874L60.324 60.1441L59.4787 60.2705L59.1949 58.3593C59.1214 57.8683 58.7877 57.6154 58.3217 57.6845C57.7821 57.7845 57.5146 58.2476 57.5984 58.8092L57.8527 60.5131L57.0073 60.6395L56.7236 58.7283C56.6501 58.2373 56.3223 57.983 55.8577 58.0521C55.3123 58.1535 55.0432 58.6151 55.127 59.1767L55.3814 60.8806L54.5419 61.0056L54.0273 57.5507L54.8668 57.4258L54.9624 58.0653C55.1329 57.5713 55.5284 57.3008 56.0767 57.2141C56.6839 57.1244 57.1485 57.3655 57.3881 57.8639C57.5307 57.2685 57.9438 56.9436 58.5495 56.8465C59.3302 56.7304 59.8844 57.17 60.0065 57.9888L60.0035 57.9874Z" fill="white"/>
<path d="M64.1399 58.1124L61.5892 58.4917C61.7715 58.9665 62.1905 59.2076 62.6948 59.1326C63.0505 59.0797 63.3593 58.8945 63.5666 58.6063L64.0885 59.0106C63.8018 59.4355 63.3313 59.731 62.7242 59.8207C61.6524 59.9794 60.8424 59.3752 60.688 58.3343C60.5322 57.2817 61.1496 56.4643 62.1817 56.3099C63.396 56.1291 64.037 56.8451 64.1384 58.1109L64.1399 58.1124ZM63.2946 57.664C63.199 57.1568 62.8094 56.8848 62.2861 56.9627C61.7891 57.0362 61.4878 57.4111 61.4863 57.933L63.2946 57.664Z" fill="white"/>
<path d="M67.0703 58.9239C66.8292 59.1238 66.5454 59.2591 66.2426 59.3046C65.681 59.3884 65.1811 59.1326 65.0753 58.4225L64.8209 56.7172L64.3373 56.7892L64.2402 56.1776L64.7313 56.1041L64.5901 55.1544L65.4222 55.0309L65.5634 55.9806L66.5513 55.8336L66.6425 56.4466L65.6545 56.5937L65.8853 58.1506C65.9339 58.4799 66.0867 58.5695 66.3117 58.5357C66.4543 58.5152 66.6072 58.4387 66.7807 58.3211L67.0688 58.9253L67.0703 58.9239Z" fill="white"/>
<path d="M67.9713 54.4664C68.0124 54.7369 67.8537 54.9589 67.589 54.9986C67.3244 55.0383 67.1083 54.8721 67.0686 54.6016C67.0289 54.3311 67.1862 54.1091 67.4508 54.0694C67.7155 54.0297 67.9316 54.1959 67.9713 54.4664ZM68.0859 55.4587L68.6005 58.9136L67.761 59.0386L67.2465 55.5837L68.0859 55.4587Z" fill="white"/>
<path d="M70.8158 57.0392L70.3689 57.6728L70.5115 58.6284L69.672 58.7534L68.959 53.9621L69.7984 53.8372L70.2116 56.6143L71.4186 54.9692L72.3874 54.8251L71.3068 56.3452L72.9784 58.2609L71.9772 58.4093L70.8158 57.0377V57.0392Z" fill="white"/>
<path d="M75.4239 57.8992L75.3606 57.4787C75.1666 57.8183 74.802 58.03 74.3124 58.1035C73.57 58.2138 73.0363 57.8242 72.9452 57.2111C72.8496 56.5716 73.2627 56.1085 74.1007 55.9762L75.1078 55.8263L75.0945 55.7351C75.0343 55.3352 74.7343 55.1353 74.2183 55.2117C73.8949 55.2602 73.5626 55.422 73.2392 55.6881L72.8496 55.1529C73.3054 54.8016 73.6714 54.5957 74.3036 54.5016C75.2077 54.3679 75.7855 54.7501 75.9061 55.5175L76.2486 57.7772L75.4224 57.9006L75.4239 57.8992ZM75.2386 56.6981L75.193 56.3879L74.3212 56.5172C73.8758 56.5834 73.6876 56.7363 73.7317 57.0406C73.7743 57.3317 74.036 57.4846 74.4168 57.4273C74.9005 57.3552 75.243 57.0406 75.2386 56.6981Z" fill="white"/>
<path d="M41.9155 22.3831C41.4451 22.3052 40.9952 22.1508 40.5792 21.9274C40.2939 21.7745 39.7 21.454 39.2737 20.838C39.1296 20.6307 38.984 20.322 38.6488 18.6474C38.5768 18.2873 38.5165 17.9624 38.4651 17.686C38.2622 16.6025 38.2446 16.5142 37.9961 16.5407C37.7726 16.5642 37.7712 16.7583 37.7682 17.0553C37.7653 17.3669 37.7609 17.8888 37.6535 18.5695C37.6271 18.7386 37.5903 18.9709 37.5198 19.2443C37.4183 19.6369 37.2287 20.369 36.6597 21.0923C36.1202 21.7774 35.4395 22.2581 34.6897 22.4816C34.6015 22.5081 34.528 22.5257 34.478 22.5375C34.3707 22.5625 34.2972 22.6595 34.3031 22.7698C34.3089 22.8786 34.3927 22.9682 34.5015 22.9815C34.8823 23.0256 35.2396 23.1005 35.5527 23.2005C36.2922 23.474 36.8067 23.8636 37.0817 24.359C37.3184 24.7839 37.486 25.3616 37.7256 26.5657C37.8197 27.0435 37.8888 27.4493 37.9446 27.7756C38.0696 28.5078 38.0975 28.6754 38.3019 28.6754C38.3151 28.6754 38.3284 28.6754 38.3431 28.6739C38.568 28.6548 38.5724 28.4549 38.5783 28.152C38.5827 27.9256 38.5886 27.5845 38.6341 27.1552C38.6709 26.8039 38.7268 26.2731 38.9149 25.6807C39.0546 25.2396 39.2296 24.6913 39.6956 24.1311C39.875 23.9165 40.5424 23.1917 41.6127 22.8991C41.7391 22.8638 41.8464 22.8433 41.9185 22.83C42.0258 22.8109 42.1037 22.7168 42.1037 22.6066C42.1037 22.4978 42.0243 22.4037 41.9155 22.3861V22.3831Z" fill="#F79734"/>
<path d="M38.0549 16.5363C38.249 16.5363 38.2798 16.6965 38.4651 17.686C38.5165 17.9623 38.5783 18.2872 38.6488 18.6474C38.9826 20.3219 39.1296 20.6307 39.2737 20.838C39.7 21.454 40.2939 21.7745 40.5792 21.9274C40.9952 22.1508 41.4451 22.3052 41.9155 22.3831C42.0229 22.4007 42.1022 22.4934 42.1037 22.6036C42.1037 22.7124 42.0273 22.8065 41.9185 22.8271C41.8464 22.8403 41.7391 22.8624 41.6127 22.8962C40.5424 23.1887 39.875 23.9135 39.6956 24.1282C39.2281 24.6883 39.0546 25.2381 38.9149 25.6777C38.7268 26.2702 38.6709 26.8009 38.6341 27.1523C38.5886 27.5816 38.5827 27.9227 38.5783 28.1491C38.5724 28.4519 38.5695 28.6518 38.3431 28.671C38.3284 28.671 38.3151 28.6724 38.3019 28.6724C38.0975 28.6724 38.0681 28.5048 37.9446 27.7727C37.8888 27.4463 37.8197 27.0391 37.7256 26.5628C37.4874 25.3572 37.3184 24.7809 37.0817 24.3561C36.8053 23.8606 36.2907 23.4695 35.5527 23.1976C35.2381 23.0976 34.8823 23.0226 34.5015 22.9785C34.3927 22.9653 34.3089 22.8771 34.3031 22.7668C34.2972 22.658 34.3707 22.5595 34.478 22.5345C34.528 22.5228 34.6015 22.5051 34.6897 22.4787C35.4395 22.2552 36.1202 21.7745 36.6597 21.0894C37.2287 20.366 37.4183 19.6339 37.5198 19.2414C37.5903 18.9679 37.6271 18.7356 37.6536 18.5666C37.7609 17.8859 37.7653 17.364 37.7682 17.0523C37.7712 16.7568 37.7726 16.5613 37.9961 16.5378C38.0181 16.5348 38.0373 16.5334 38.0564 16.5334M38.0549 16.0864C38.0226 16.0864 37.9858 16.0879 37.9476 16.0923C37.3257 16.1555 37.3198 16.7598 37.3184 17.0508C37.3154 17.3522 37.311 17.8521 37.2081 18.499C37.1831 18.6592 37.1478 18.8797 37.0831 19.1311C36.9905 19.4928 36.8156 20.1646 36.3054 20.813C35.8247 21.4246 35.2204 21.8524 34.5603 22.0494C34.4839 22.0714 34.4207 22.0876 34.378 22.0979C34.0561 22.1714 33.8356 22.464 33.8547 22.7933C33.8723 23.1226 34.1237 23.3887 34.4501 23.4269C34.7985 23.4681 35.1205 23.5342 35.4072 23.6254C36.0364 23.8591 36.4686 24.1796 36.6891 24.5766C36.8979 24.9515 37.0581 25.5131 37.2845 26.6524C37.3786 27.1258 37.4463 27.5272 37.5021 27.8506C37.6374 28.6445 37.7182 29.1238 38.3034 29.1238C38.3284 29.1238 38.3548 29.1238 38.3813 29.1208C39.012 29.0664 39.0237 28.4534 39.0281 28.1593C39.0326 27.9418 39.0384 27.6124 39.0811 27.2023C39.1164 26.8685 39.1693 26.3658 39.3428 25.8174C39.478 25.394 39.6294 24.9118 40.0411 24.4193C40.1984 24.2296 40.7865 23.5916 41.7318 23.3328C41.82 23.3093 41.9097 23.2887 41.9993 23.2725C42.3228 23.2137 42.5565 22.9329 42.5536 22.6036C42.5506 22.2743 42.3139 21.9965 41.989 21.9421C41.5671 21.8715 41.1643 21.7348 40.7923 21.5334C40.5189 21.3863 40.0087 21.1114 39.6427 20.5836C39.5412 20.4366 39.406 20.147 39.0899 18.5607C39.0179 18.202 38.9576 17.8785 38.9061 17.6051C38.6988 16.501 38.6224 16.0879 38.0534 16.0879L38.0549 16.0864Z" fill="white"/>
<path d="M32.9941 12.1273C33.1161 12.3479 33.2058 12.6537 33.3337 13.2976C33.3852 13.5563 33.4234 13.7798 33.4528 13.9533C33.5219 14.362 33.5498 14.5281 33.7454 14.5281C33.7557 14.5281 33.7674 14.5281 33.7792 14.5281C33.9938 14.5105 33.9982 14.3061 34.0012 14.1429C34.0026 14.0224 34.0071 13.8386 34.0306 13.6107C34.0497 13.424 34.0791 13.1418 34.1791 12.8301C34.2526 12.5993 34.3437 12.3111 34.5848 12.0215C34.6774 11.9098 35.0229 11.5363 35.5757 11.3849C35.6419 11.3673 35.6963 11.3555 35.733 11.3496C35.8403 11.3305 35.9183 11.2364 35.9183 11.1262C35.9183 11.0159 35.8374 10.9233 35.7301 10.9056C35.486 10.8645 35.2523 10.7851 35.0347 10.669C34.8862 10.5896 34.5789 10.4234 34.3614 10.1088C34.3055 10.0294 34.2305 9.91917 34.0379 8.95622C33.9982 8.76069 33.9659 8.58427 33.938 8.43431C33.8248 7.83008 33.7998 7.70365 33.5719 7.72864C33.3587 7.75069 33.3572 7.95798 33.3558 8.10941C33.3558 8.27554 33.3514 8.55487 33.294 8.918C33.2793 9.00767 33.2602 9.1297 33.2235 9.27524C33.1705 9.48107 33.0706 9.86478 32.7751 10.2426C32.4957 10.5984 32.1429 10.8483 31.7548 10.963C31.7092 10.9762 31.6724 10.9865 31.646 10.9924C31.5387 11.0174 31.4652 11.1144 31.471 11.2232C31.4769 11.332 31.5607 11.4217 31.6695 11.4349C31.8694 11.4584 32.0576 11.4981 32.2179 11.5481C32.5957 11.6878 32.8574 11.8848 32.9956 12.1318L32.9941 12.1273Z" fill="#F79734"/>
<path d="M33.6193 7.72124C33.803 7.72124 33.8324 7.87267 33.9368 8.42986C33.9648 8.57981 33.9986 8.75623 34.0368 8.95176C34.2294 9.91618 34.3044 10.025 34.3602 10.1044C34.5778 10.419 34.8865 10.5851 35.0336 10.6645C35.2511 10.7806 35.4849 10.8615 35.7289 10.9012C35.8363 10.9188 35.9157 11.0115 35.9171 11.1217C35.9186 11.232 35.8392 11.3246 35.7319 11.3452C35.6951 11.3525 35.6393 11.3628 35.5746 11.3805C35.0218 11.5319 34.6763 11.9068 34.5837 12.017C34.3426 12.3067 34.2514 12.5948 34.1779 12.8256C34.078 13.1388 34.0486 13.421 34.0294 13.6063C34.0059 13.8356 34.0015 14.0179 34 14.1385C33.9971 14.3017 33.9927 14.506 33.778 14.5237C33.7663 14.5237 33.7545 14.5237 33.7442 14.5237C33.5487 14.5237 33.5208 14.3575 33.4517 13.9488C33.4223 13.7753 33.384 13.5519 33.3326 13.2931C33.2047 12.6492 33.1165 12.3434 32.993 12.1229C32.8548 11.8759 32.5931 11.6789 32.2153 11.5392C32.055 11.4878 31.8668 11.4496 31.6669 11.426C31.5581 11.4128 31.4743 11.3246 31.4684 11.2143C31.4626 11.1055 31.5361 11.007 31.6434 10.9835C31.6684 10.9776 31.7066 10.9688 31.7522 10.9541C32.1403 10.8394 32.4917 10.5895 32.7725 10.2337C33.0694 9.85738 33.1679 9.4722 33.2209 9.26637C33.2591 9.12083 33.2782 8.99881 33.2914 8.90913C33.3488 8.546 33.3517 8.26814 33.3532 8.10054C33.3532 7.94911 33.3561 7.74035 33.5693 7.71977C33.5869 7.7183 33.6031 7.71683 33.6178 7.71683M33.6193 7.2699C33.5884 7.2699 33.5561 7.27137 33.5208 7.27578C33.2944 7.29931 32.9092 7.4375 32.9033 8.10054C32.9033 8.2652 32.9004 8.51365 32.8474 8.8415C32.8342 8.92677 32.8166 9.03262 32.7857 9.15611C32.7372 9.34282 32.6563 9.6545 32.4182 9.95735C32.1962 10.2396 31.9212 10.4366 31.6228 10.5248C31.589 10.5351 31.5611 10.5425 31.5419 10.5469C31.2214 10.6204 31.0009 10.9129 31.0186 11.2423C31.0362 11.5716 31.2876 11.8377 31.614 11.8759C31.7786 11.895 31.9359 11.9274 32.0683 11.9685C32.3329 12.0685 32.5167 12.1979 32.599 12.3449C32.6945 12.5169 32.7739 12.7992 32.8901 13.3843C32.9401 13.6342 32.9753 13.8489 33.0047 14.0209C33.0783 14.4516 33.1679 14.9765 33.7428 14.9765C33.7663 14.9765 33.7898 14.9765 33.8148 14.9735C34.0971 14.95 34.4367 14.7868 34.4484 14.1488C34.4499 14.0356 34.4543 13.865 34.4749 13.6548C34.494 13.4769 34.519 13.2329 34.6043 12.9623C34.6719 12.7492 34.7425 12.5272 34.9262 12.3052C34.9762 12.2449 35.2541 11.9332 35.6907 11.8142C35.7407 11.8009 35.7819 11.7921 35.8113 11.7877C36.1347 11.7289 36.367 11.4481 36.3655 11.1188C36.3626 10.7895 36.1259 10.5116 35.801 10.4572C35.6055 10.4249 35.4187 10.3602 35.2453 10.2676C35.1188 10.1999 34.8851 10.0735 34.7278 9.84709C34.6778 9.77505 34.5881 9.42368 34.4749 8.86208C34.4367 8.66802 34.4029 8.49307 34.3764 8.34459C34.2632 7.74329 34.175 7.26843 33.6163 7.26843L33.6193 7.2699Z" fill="white"/>
<path d="M47.6219 13.8459C47.7292 13.8253 47.8071 13.7327 47.8057 13.6224C47.8057 13.5136 47.7263 13.421 47.619 13.4019C47.3338 13.3534 47.0618 13.2578 46.8104 13.1196C46.6369 13.0241 46.2782 12.8256 46.0224 12.4478C45.9562 12.3507 45.8665 12.2169 45.6445 11.0732C45.599 10.8423 45.5607 10.6336 45.5284 10.4572C45.4005 9.75884 45.3755 9.63388 45.1432 9.6574C44.9286 9.67945 44.9271 9.88527 44.9256 10.0661C44.9242 10.2631 44.9212 10.5939 44.8551 11.0246C44.8389 11.132 44.8154 11.2775 44.7727 11.4495C44.711 11.695 44.5948 12.1537 44.2494 12.6036C43.923 13.0285 43.5113 13.3269 43.06 13.4636C43.0071 13.4798 42.963 13.4916 42.9336 13.4974C42.8277 13.5224 42.7542 13.6195 42.7601 13.7297C42.766 13.8385 42.8498 13.9282 42.9586 13.94C43.1909 13.9679 43.4084 14.0149 43.5966 14.0752C44.0391 14.2428 44.3464 14.4795 44.5096 14.7794C44.6537 15.044 44.7566 15.4072 44.9036 16.1702C44.9624 16.476 45.0065 16.7391 45.0403 16.9435C45.1197 17.4242 45.1476 17.5874 45.3446 17.5874C45.3564 17.5874 45.3682 17.5874 45.3814 17.5859C45.5975 17.5668 45.6019 17.3669 45.6048 17.1728C45.6078 17.0288 45.6107 16.8126 45.6387 16.5407C45.6607 16.3187 45.696 15.9849 45.8107 15.6115C45.8959 15.3351 46.0033 14.9926 46.2855 14.6456C46.3943 14.5133 46.7971 14.0649 47.4425 13.8841C47.519 13.862 47.5837 13.8488 47.6263 13.8415L47.6219 13.8459Z" fill="#F79734"/>
<path d="M45.1908 9.65592C45.379 9.65592 45.4098 9.81029 45.5289 10.4586C45.5613 10.635 45.5995 10.8438 45.6451 11.0746C45.8685 12.2184 45.9582 12.3522 46.0229 12.4492C46.2787 12.827 46.6374 13.0255 46.8109 13.1211C47.0623 13.2593 47.3343 13.3548 47.6195 13.4033C47.7268 13.421 47.8062 13.5151 47.8062 13.6239C47.8062 13.7327 47.7297 13.8268 47.6224 13.8473C47.5783 13.8547 47.5151 13.8694 47.4386 13.89C46.7932 14.0708 46.3904 14.5177 46.2816 14.6515C45.9994 14.9985 45.8935 15.341 45.8068 15.6174C45.6906 15.9908 45.6568 16.3246 45.6348 16.5465C45.6068 16.8185 45.6024 17.0346 45.6009 17.1787C45.598 17.3728 45.5936 17.5742 45.3775 17.5918C45.3643 17.5918 45.3525 17.5933 45.3407 17.5933C45.1437 17.5933 45.1173 17.4301 45.0364 16.9494C45.0026 16.745 44.9585 16.4819 44.8997 16.1761C44.7527 15.4131 44.6483 15.0499 44.5057 14.7853C44.3425 14.4854 44.0352 14.2487 43.5927 14.0811C43.406 14.0208 43.1884 13.9738 42.9547 13.9458C42.8459 13.9326 42.7621 13.8444 42.7562 13.7356C42.7503 13.6268 42.8224 13.5283 42.9297 13.5033C42.9591 13.496 43.0032 13.4857 43.0561 13.4695C43.5074 13.3313 43.9191 13.0343 44.2455 12.6095C44.591 12.1596 44.7071 11.7009 44.7688 11.4554C44.8129 11.2834 44.835 11.1364 44.8512 11.0305C44.9173 10.5998 44.9203 10.269 44.9217 10.072C44.9217 9.89115 44.9247 9.68533 45.1393 9.66327C45.157 9.6618 45.1717 9.66033 45.1864 9.66033M45.1908 9.20605C45.1614 9.20605 45.1305 9.20753 45.0967 9.21047C44.8159 9.23987 44.4807 9.41041 44.4748 10.0632C44.4733 10.2484 44.4704 10.5586 44.4087 10.957C44.394 11.054 44.3734 11.1878 44.3337 11.3407C44.2763 11.5701 44.1778 11.9538 43.8897 12.3316C43.6207 12.6815 43.2869 12.9255 42.9253 13.0358C42.8841 13.049 42.8488 13.0579 42.8268 13.0623C42.5077 13.1373 42.2887 13.4298 42.3078 13.7577C42.3269 14.0855 42.5768 14.3516 42.9017 14.3898C43.0973 14.4133 43.284 14.453 43.4428 14.503C43.7765 14.6309 44 14.7971 44.1102 14.997C44.2278 15.2131 44.3219 15.5557 44.4586 16.2584C44.5174 16.5598 44.5615 16.8259 44.5939 17.0199C44.6777 17.5213 44.763 18.0402 45.3422 18.0402C45.3657 18.0402 45.3907 18.0402 45.4172 18.0373C45.8288 18.002 46.042 17.7138 46.0523 17.1831C46.0552 17.0479 46.0582 16.842 46.0846 16.5892C46.1067 16.3731 46.1376 16.0776 46.239 15.7468C46.3169 15.4954 46.4051 15.2116 46.633 14.9323C46.6947 14.8559 47.0314 14.4692 47.5621 14.3207C47.6107 14.3075 47.6592 14.2957 47.7062 14.2869C48.0282 14.2266 48.2605 13.9458 48.259 13.618C48.256 13.2901 48.0208 13.0123 47.6974 12.9564C47.4622 12.9167 47.2372 12.8373 47.0299 12.7241C46.877 12.6403 46.5918 12.483 46.3978 12.1949C46.3713 12.1567 46.2934 12.0405 46.0876 10.9864C46.0449 10.7703 46.0097 10.5748 45.9788 10.4072L45.9729 10.3763C45.8435 9.67062 45.7583 9.20605 45.1922 9.20605H45.1908Z" fill="white"/>
<path d="M58.3167 65.3733C58.0859 65.3351 57.8654 65.2601 57.661 65.1499C57.5214 65.0749 57.2303 64.9176 57.0259 64.6221C56.9745 64.5471 56.9024 64.4442 56.7201 63.5312C56.6834 63.3445 56.651 63.1769 56.6246 63.0343C56.5187 62.4668 56.4952 62.3316 56.2644 62.3566C56.0527 62.3786 56.0512 62.5815 56.0498 62.73C56.0498 62.8873 56.0468 63.1519 55.9924 63.4959C55.9792 63.5812 55.9601 63.6988 55.9248 63.8355C55.8748 64.0311 55.7807 64.3942 55.5014 64.7485C55.2368 65.0852 54.903 65.3204 54.5399 65.4292C54.4973 65.4424 54.462 65.4512 54.437 65.4557C54.3297 65.4792 54.2562 65.5777 54.262 65.6865C54.2679 65.7953 54.3517 65.8849 54.4605 65.8982C54.6502 65.9202 54.8281 65.9584 54.978 66.0055C55.3338 66.1363 55.5808 66.3216 55.7101 66.5539C55.8263 66.7626 55.9101 67.0522 56.0306 67.6624C56.0792 67.9079 56.1159 68.1196 56.1438 68.2828C56.2085 68.6679 56.2379 68.8385 56.432 68.8385C56.4423 68.8385 56.454 68.8385 56.4658 68.837C56.6805 68.8194 56.6834 68.6121 56.6863 68.4607C56.6878 68.346 56.6922 68.1725 56.7143 67.9564C56.7334 67.78 56.7613 67.5124 56.8554 67.2169C56.9245 66.9993 57.0112 66.7273 57.2391 66.4539C57.3259 66.3495 57.6522 65.9952 58.1741 65.8526C58.2359 65.835 58.2873 65.8247 58.3226 65.8188C58.4299 65.7997 58.5079 65.7056 58.5064 65.5953C58.5064 65.4865 58.4255 65.3924 58.3182 65.3748L58.3167 65.3733Z" fill="#F79734"/>
<path d="M56.3108 62.3537C56.499 62.3537 56.5254 62.508 56.6254 63.0344C56.6519 63.177 56.6842 63.3446 56.721 63.5313C56.9033 64.4442 56.9738 64.5472 57.0268 64.6221C57.2311 64.9191 57.5222 65.0749 57.6619 65.1499C57.8662 65.2602 58.0867 65.3352 58.3176 65.3734C58.4249 65.391 58.5043 65.4836 58.5057 65.5939C58.5057 65.7027 58.4293 65.7968 58.322 65.8174C58.2867 65.8233 58.2352 65.835 58.1735 65.8512C57.6516 65.9938 57.3267 66.3466 57.2385 66.4525C57.0106 66.7259 56.9253 66.9979 56.8547 67.2155C56.7607 67.511 56.7327 67.7786 56.7136 67.955C56.6916 68.1711 56.6886 68.3446 56.6857 68.4592C56.6827 68.6107 56.6798 68.818 56.4652 68.8356C56.4534 68.8356 56.4416 68.8371 56.4313 68.8371C56.2373 68.8371 56.2079 68.6665 56.1432 68.2814C56.1153 68.1182 56.0785 67.905 56.03 67.6609C55.9094 67.0508 55.8256 66.7612 55.7095 66.5524C55.5801 66.3202 55.3346 66.1349 54.9774 66.0041C54.8274 65.957 54.6495 65.9188 54.4599 65.8968C54.3511 65.8835 54.2673 65.7938 54.2614 65.6851C54.2555 65.5748 54.329 65.4778 54.4363 65.4542C54.4599 65.4484 54.4966 65.4395 54.5393 65.4278C54.9039 65.319 55.2361 65.0838 55.5007 64.7471C55.7801 64.3928 55.8742 64.0297 55.9241 63.8341C55.9594 63.6989 55.9771 63.5813 55.9918 63.4945C56.0462 63.152 56.0491 62.8873 56.0491 62.7286C56.0491 62.5801 56.052 62.3772 56.2637 62.3552C56.2799 62.3537 56.2961 62.3522 56.3108 62.3522M56.3108 61.9038C56.2814 61.9038 56.2505 61.9053 56.2182 61.9082C55.9903 61.9317 55.6051 62.0699 55.5992 62.7242C55.5992 62.88 55.5963 63.1138 55.5463 63.4225C55.5331 63.5078 55.5169 63.6077 55.4875 63.7195C55.4419 63.8929 55.367 64.1855 55.1464 64.4663C54.9391 64.7295 54.6848 64.9118 54.4099 64.9941C54.3819 65.0029 54.357 65.0088 54.3393 65.0132C54.0159 65.0867 53.7939 65.3778 53.8115 65.7071C53.8292 66.0379 54.0806 66.304 54.4069 66.3422C54.5628 66.3599 54.7083 66.3907 54.8303 66.429C55.0744 66.5201 55.242 66.6377 55.3155 66.77C55.4037 66.9288 55.4802 67.2023 55.5875 67.7462C55.6345 67.9814 55.6683 68.1843 55.6963 68.3475C55.7639 68.7474 55.855 69.2855 56.4299 69.2855C56.4534 69.2855 56.4799 69.2855 56.5063 69.2825C56.7327 69.2634 57.1223 69.1311 57.1355 68.4666C57.1385 68.349 57.1414 68.1946 57.1605 68.0006C57.1782 67.833 57.2032 67.6021 57.2826 67.3507C57.3458 67.1508 57.4119 66.945 57.5825 66.7392C57.6295 66.6833 57.8853 66.3951 58.2896 66.2849C58.3352 66.2716 58.3734 66.2643 58.3999 66.2599C58.7233 66.2011 58.9571 65.9188 58.9541 65.591C58.9512 65.2616 58.7145 64.9838 58.3896 64.9309C58.2088 64.9 58.0338 64.8412 57.8736 64.7544C57.756 64.6912 57.5384 64.5751 57.3943 64.3663C57.3722 64.3355 57.3076 64.1855 57.1605 63.4431C57.1267 63.2725 57.0973 63.1167 57.0723 62.9829L57.0665 62.9506L57.0635 62.9329C56.9591 62.3801 56.8709 61.9023 56.3108 61.9023V61.9038Z" fill="white"/>
<path d="M54.2646 69.065C53.7265 68.9753 53.2119 68.8004 52.7356 68.5431C52.4092 68.3667 51.73 68.0006 51.2405 67.2949C51.0743 67.0553 50.9067 66.7025 50.526 64.7927C50.4436 64.3811 50.3745 64.0106 50.3157 63.696C50.0908 62.4934 50.0732 62.3964 49.8159 62.4214C49.5895 62.4449 49.588 62.6448 49.5851 62.9756C49.5821 63.3314 49.5762 63.9253 49.4542 64.703C49.4248 64.8839 49.3822 65.1573 49.2998 65.4734C49.1837 65.9218 48.9676 66.7583 48.3163 67.5846C47.6988 68.3696 46.9197 68.9195 46.0611 69.1753C45.9597 69.2047 45.8759 69.2267 45.8185 69.24C45.7112 69.2649 45.6377 69.362 45.645 69.4722C45.6509 69.581 45.7347 69.6707 45.8435 69.6839C46.2787 69.7354 46.6859 69.8207 47.0461 69.9353C47.8929 70.2485 48.4839 70.6954 48.8015 71.2673C49.072 71.7539 49.2646 72.4125 49.5365 73.7857C49.6439 74.3282 49.7218 74.7913 49.7865 75.1632C49.9276 75.9909 49.9555 76.16 50.1658 76.16C50.179 76.16 50.1922 76.16 50.2069 76.1585C50.4348 76.1394 50.4392 75.9453 50.4451 75.5954C50.4495 75.3382 50.4569 74.9486 50.5083 74.4605C50.5509 74.0591 50.6142 73.4534 50.8288 72.7771C50.9891 72.2729 51.1875 71.6466 51.7227 71.0041C51.927 70.7572 52.693 69.928 53.9191 69.5928C54.0337 69.5619 54.1514 69.534 54.269 69.5134C54.3763 69.4943 54.4542 69.4002 54.4542 69.2899C54.4542 69.1811 54.3734 69.0871 54.266 69.0694L54.2646 69.065Z" fill="#F79734"/>
<path d="M49.8696 62.4169C50.0754 62.4169 50.1063 62.586 50.3136 63.6945C50.3724 64.0091 50.4415 64.3796 50.5238 64.7912C50.9046 66.7009 51.0737 67.0553 51.2383 67.2934C51.7264 68.0006 52.4071 68.3666 52.7335 68.5416C53.2098 68.7989 53.7244 68.9738 54.2624 69.0635C54.3698 69.0811 54.4491 69.1738 54.4506 69.284C54.4506 69.3928 54.3742 69.4869 54.2654 69.5075C54.1478 69.5295 54.0302 69.556 53.9155 69.5869C52.6894 69.9221 51.9249 70.7512 51.7191 70.9982C51.1839 71.6407 50.9855 72.267 50.8252 72.7712C50.6106 73.4475 50.5474 74.0532 50.5047 74.4546C50.4533 74.9441 50.4459 75.3322 50.4415 75.5895C50.4356 75.9409 50.4312 76.1335 50.2033 76.1526C50.1886 76.1526 50.1754 76.1541 50.1622 76.1541C49.9534 76.1541 49.924 75.985 49.7829 75.1573C49.7197 74.7853 49.6417 74.3237 49.5329 73.7798C49.261 72.4066 49.0684 71.7465 48.7979 71.2614C48.4803 70.691 47.8893 70.2426 47.0425 69.9294C46.6823 69.8147 46.2751 69.7295 45.8399 69.678C45.7311 69.6648 45.6473 69.5766 45.6414 69.4663C45.6356 69.3575 45.7091 69.259 45.8149 69.234C45.8723 69.2208 45.9561 69.2002 46.0575 69.1693C46.9146 68.9135 47.6953 68.3637 48.3127 67.5786C48.9625 66.7509 49.1801 65.9159 49.2963 65.4675C49.3786 65.1499 49.4212 64.878 49.4506 64.6971C49.5741 63.9209 49.5785 63.3255 49.5815 62.9697C49.5844 62.6389 49.5859 62.439 49.8123 62.4154C49.8329 62.414 49.8505 62.4125 49.8681 62.4125M49.8696 61.967C49.8387 61.967 49.8064 61.9685 49.7711 61.9715C49.1404 62.0347 49.1345 62.6433 49.1331 62.9697C49.1301 63.3137 49.1257 63.8871 49.0081 64.6295C48.9802 64.8044 48.939 65.0647 48.8626 65.3587C48.7552 65.7748 48.5538 66.551 47.9613 67.3037C47.4012 68.0153 46.7 68.5122 45.9325 68.7401C45.8634 68.7606 45.7914 68.7797 45.7164 68.7974C45.3959 68.8709 45.1754 69.1635 45.1945 69.4928C45.2122 69.8221 45.4636 70.0882 45.7899 70.1264C46.1928 70.1735 46.5662 70.2514 46.8984 70.3558C47.6364 70.6292 48.1436 71.0085 48.4068 71.4804C48.6523 71.92 48.8317 72.5448 49.0934 73.868C49.1977 74.3943 49.2742 74.8471 49.3374 75.2117L49.3404 75.2323C49.4947 76.1452 49.5726 76.6039 50.1622 76.6039C50.1886 76.6039 50.2151 76.6039 50.2445 76.5995C50.8752 76.5466 50.887 75.9277 50.8928 75.5954C50.8972 75.3411 50.9046 74.9647 50.9531 74.4987C50.9928 74.1164 51.0546 73.5372 51.2545 72.905C51.4103 72.414 51.5868 71.8583 52.066 71.2834C52.2498 71.0629 52.9349 70.319 54.0346 70.0176C54.1375 69.9897 54.2419 69.9662 54.3462 69.9471C54.6711 69.8882 54.9034 69.606 54.9005 69.2781C54.8975 68.9488 54.6608 68.671 54.3359 68.618C53.8464 68.5372 53.3789 68.3769 52.9466 68.1446C52.6511 67.9859 52.0366 67.6551 51.6088 67.0361C51.4883 66.8612 51.328 66.5231 50.9649 64.7015C50.884 64.2928 50.8135 63.9224 50.7561 63.6107L50.7532 63.5975C50.6459 63.0211 50.5856 62.7036 50.5165 62.4948C50.4003 62.1435 50.1828 61.9656 49.8681 61.9656L49.8696 61.967Z" fill="white"/>
<path d="M66.1346 28.6078C65.9038 28.5696 65.6833 28.4946 65.4789 28.3843C65.3393 28.3094 65.0482 28.1521 64.8424 27.8551C64.7909 27.7801 64.7189 27.6772 64.5366 26.7642C64.4998 26.5775 64.4675 26.4084 64.441 26.2658C64.3351 25.6998 64.3116 25.566 64.0808 25.5896C63.8691 25.6116 63.8676 25.8145 63.8662 25.963C63.8662 26.1203 63.8632 26.3849 63.8088 26.7289C63.7956 26.8083 63.7765 26.9289 63.7412 27.0671C63.6912 27.2626 63.5971 27.6257 63.3178 27.98C63.0546 28.3167 62.7209 28.5505 62.3563 28.6607C62.3137 28.674 62.2784 28.6828 62.2534 28.6872C62.1461 28.7122 62.0726 28.8092 62.0785 28.9195C62.0843 29.0283 62.1681 29.1179 62.2769 29.1312C62.4666 29.1532 62.6445 29.19 62.7944 29.2385C63.1502 29.3693 63.3972 29.5546 63.5266 29.7869C63.6427 29.9942 63.7265 30.2838 63.8471 30.8939C63.8956 31.1409 63.9323 31.3526 63.9603 31.5172C64.0249 31.9009 64.0543 32.07 64.2499 32.07C64.2602 32.07 64.2719 32.07 64.2822 32.07C64.4969 32.0524 64.4998 31.8451 64.5027 31.6937C64.5042 31.579 64.5086 31.4055 64.5307 31.1894C64.5498 31.013 64.5777 30.7454 64.6718 30.4499C64.7409 30.2309 64.8276 29.9603 65.0555 29.6869C65.1423 29.5825 65.4672 29.2297 65.9905 29.0856C66.0523 29.068 66.1037 29.0577 66.139 29.0518C66.2463 29.0327 66.3243 28.9386 66.3243 28.8283C66.3243 28.7195 66.2434 28.6254 66.1361 28.6078H66.1346Z" fill="white"/>
<path d="M69.8954 25.1882C69.7586 25.1647 69.6278 25.1206 69.5072 25.0559C69.419 25.0074 69.2529 24.9192 69.1353 24.7486C69.1103 24.7119 69.0677 24.6501 68.9559 24.0915C68.9324 23.9738 68.9133 23.868 68.8957 23.7783C68.8295 23.4225 68.7972 23.2623 68.5796 23.2843C68.3708 23.3049 68.3693 23.521 68.3679 23.6019C68.3679 23.6989 68.3664 23.8621 68.3326 24.0724C68.3238 24.1253 68.3135 24.1958 68.2914 24.2782C68.2591 24.4031 68.2047 24.6134 68.0386 24.8236C67.8827 25.0221 67.6872 25.1603 67.4725 25.225C67.4475 25.2323 67.427 25.2367 67.4123 25.2411C67.3049 25.2661 67.2314 25.3631 67.2388 25.4734C67.2447 25.5822 67.3285 25.6719 67.4373 25.6851C67.5519 25.6983 67.6578 25.7204 67.7445 25.7483C67.9503 25.8248 68.0915 25.9277 68.162 26.0571C68.2311 26.1806 68.2811 26.357 68.3561 26.7319C68.387 26.8862 68.409 27.0185 68.4267 27.1215C68.4678 27.364 68.4972 27.5419 68.6884 27.5419C68.6972 27.5419 68.7075 27.5419 68.7178 27.5419C68.928 27.5257 68.9324 27.314 68.9339 27.2229C68.9339 27.1523 68.9368 27.0465 68.9515 26.9112C68.9633 26.8024 68.9795 26.6392 69.0368 26.4599C69.0809 26.3217 69.1294 26.1659 69.2632 26.0071C69.3146 25.9453 69.5043 25.7395 69.8116 25.6557C69.8483 25.6454 69.8777 25.6395 69.8983 25.6366C70.0056 25.6175 70.0835 25.5234 70.0835 25.4131C70.0835 25.3043 70.0042 25.2103 69.8954 25.1926V25.1882Z" fill="white"/>
<path d="M25.2506 28.6078C25.1065 28.5828 24.9698 28.5328 24.8419 28.4593C24.7478 28.4049 24.5714 28.305 24.445 28.1094C24.417 28.0668 24.37 27.9948 24.2509 27.3626C24.2259 27.2317 24.2053 27.1141 24.1877 27.0142C24.1186 26.6187 24.0907 26.457 23.8643 26.479C23.657 26.5011 23.6555 26.7084 23.6555 26.8069C23.6555 26.9171 23.6526 27.1009 23.6173 27.3391C23.6085 27.3993 23.5967 27.4787 23.5732 27.5728C23.5379 27.7154 23.4806 27.9536 23.3027 28.1947C23.1365 28.4196 22.9292 28.5755 22.7028 28.6475C22.6764 28.6563 22.6558 28.6607 22.6411 28.6651C22.5352 28.6901 22.4632 28.7886 22.4691 28.896C22.475 29.0048 22.5588 29.093 22.6661 29.1062C22.7866 29.1209 22.8984 29.1459 22.9895 29.1768C23.2086 29.262 23.3585 29.3811 23.4364 29.5296C23.51 29.6707 23.5644 29.8707 23.6437 30.2941C23.6761 30.4661 23.6996 30.616 23.7187 30.7307C23.7614 30.9983 23.7908 31.1791 23.9863 31.1791C23.9966 31.1791 24.0069 31.1791 24.0172 31.1791C24.2245 31.1585 24.2289 30.9498 24.2303 30.8498C24.2303 30.7704 24.2333 30.6484 24.248 30.4984C24.2597 30.3764 24.2788 30.1912 24.3391 29.9868C24.3862 29.8295 24.4391 29.6531 24.5817 29.4708C24.6361 29.4017 24.839 29.1679 25.1624 29.0738C25.2006 29.0636 25.2315 29.0562 25.2536 29.0518C25.3609 29.0312 25.4373 28.9371 25.4359 28.8283C25.4359 28.7195 25.3565 28.6269 25.2506 28.6078Z" fill="white"/>
</g>
<defs>
<linearGradient id="paint0_linear_43_3836" x1="29.1105" y1="19.7692" x2="69.3193" y2="59.9779" gradientUnits="userSpaceOnUse">
<stop stop-color="#052538"/>
<stop offset="1" stop-color="#26778E"/>
</linearGradient>
<clipPath id="clip0_43_3836">
<rect width="96.601" height="80" fill="white" transform="translate(0.5)"/>
</clipPath>
</defs>
</svg>
