<svg width="17" height="12" viewBox="0 0 17 12" fill="none" xmlns="http://www.w3.org/2000/svg">
<path d="M13.0211 7.00001H1.87109C1.58776 7.00001 1.35026 6.90418 1.15859 6.71251C0.966927 6.52085 0.871094 6.28335 0.871094 6.00001C0.871094 5.71668 0.966927 5.47918 1.15859 5.28751C1.35026 5.09585 1.58776 5.00001 1.87109 5.00001H13.0211L10.1711 2.15001C9.97109 1.95001 9.87526 1.71668 9.88359 1.45001C9.89193 1.18335 9.98776 0.950012 10.1711 0.750012C10.3711 0.550012 10.6086 0.445845 10.8836 0.437512C11.1586 0.429178 11.3961 0.525012 11.5961 0.725012L16.1711 5.30001C16.2711 5.40001 16.3419 5.50835 16.3836 5.62501C16.4253 5.74168 16.4461 5.86668 16.4461 6.00001C16.4461 6.13335 16.4253 6.25835 16.3836 6.37501C16.3419 6.49168 16.2711 6.60001 16.1711 6.70001L11.5961 11.275C11.3961 11.475 11.1586 11.5708 10.8836 11.5625C10.6086 11.5542 10.3711 11.45 10.1711 11.25C9.98776 11.05 9.89193 10.8167 9.88359 10.55C9.87526 10.2833 9.97109 10.05 10.1711 9.85001L13.0211 7.00001Z" fill="white"/>
</svg>
