<svg width="17" height="16" viewBox="0 0 17 16" fill="none" xmlns="http://www.w3.org/2000/svg">
<path d="M6.13855 10.2411L13.8735 2.50617C14.1787 2.20095 14.5402 2.04834 14.9578 2.04834C15.3755 2.04834 15.7369 2.20095 16.0422 2.50617C16.3474 2.81139 16.5 3.17284 16.5 3.59051C16.5 4.00818 16.3474 4.36963 16.0422 4.67485L7.22289 13.4941C6.91767 13.7993 6.55622 13.952 6.13855 13.952C5.72088 13.952 5.35944 13.7993 5.05422 13.4941L0.957831 9.39774C0.65261 9.09252 0.5 8.73107 0.5 8.3134C0.5 7.89573 0.65261 7.53428 0.957831 7.22906C1.26305 6.92384 1.6245 6.77123 2.04217 6.77123C2.45984 6.77123 2.82129 6.92384 3.12651 7.22906L6.13855 10.2411Z" fill="#F79734"/>
</svg>
