<svg width="8" height="12" viewBox="0 0 8 12" fill="none" xmlns="http://www.w3.org/2000/svg">
<path d="M7.5005 6C7.5005 6.1435 7.47808 6.27803 7.43323 6.40359C7.38839 6.52915 7.31216 6.64574 7.20453 6.75336L2.25386 11.704C2.05655 11.9013 1.80543 12 1.5005 12C1.19557 12 0.944445 11.9013 0.747136 11.704C0.549827 11.5067 0.451172 11.2556 0.451172 10.9507C0.451172 10.6457 0.549827 10.3946 0.747136 10.1973L4.94445 6L0.747136 1.80269C0.549826 1.60538 0.451171 1.35426 0.451171 1.04933C0.451171 0.744395 0.549826 0.493274 0.747135 0.295964C0.944445 0.0986547 1.19557 -3.25385e-08 1.5005 -4.58676e-08C1.80543 -5.91966e-08 2.05655 0.0986547 2.25386 0.295964L7.20453 5.24664C7.31216 5.35426 7.38839 5.47085 7.43323 5.59641C7.47808 5.72197 7.5005 5.8565 7.5005 6Z" fill="white"/>
</svg>
