<svg width="97" height="96" viewBox="0 0 97 96" fill="none" xmlns="http://www.w3.org/2000/svg">
<rect x="0.666016" width="96" height="96" rx="48" fill="#1E3035"/>
<g clip-path="url(#clip0_128_125)">
<path d="M31.3276 53.2227C30.1858 53.2534 29.2949 54.1341 29.2949 55.2246V57.5901C29.2949 58.696 30.2421 59.592 31.4044 59.592H38.6031C39.4684 59.592 40.2364 59.1005 40.5589 58.3376C40.8712 57.6003 40.7074 56.7811 40.1391 56.2025C37.4716 53.4787 33.4728 53.1613 31.3378 53.2227H31.3276ZM39.0792 57.7181C39.0536 57.7846 38.9359 57.9945 38.598 57.9945H31.3992C31.1228 57.9945 30.8872 57.8102 30.8872 57.5901V55.2246C30.8872 55.0096 31.1023 54.8304 31.3634 54.8201C31.4914 54.8201 31.6296 54.815 31.7781 54.815C33.7237 54.815 36.893 55.1837 38.982 57.3187C39.1304 57.4723 39.1151 57.6208 39.0741 57.7129L39.0792 57.7181Z" fill="white"/>
<path d="M57.2089 56.2024C56.6406 56.7861 56.4768 57.6001 56.7891 58.3374C57.1065 59.1003 57.8745 59.5918 58.7449 59.5918H65.9436C67.1059 59.5918 68.0531 58.6907 68.0531 57.5899V55.2244C68.0531 54.1339 67.1622 53.2532 66.0204 53.2225C63.8803 53.1611 59.8867 53.4734 57.2192 56.2024H57.2089ZM66.4454 55.2244V57.5899C66.4454 57.81 66.2099 57.9944 65.9334 57.9944H58.7347C58.3968 57.9944 58.2841 57.7844 58.2534 57.7179C58.2124 57.6206 58.1971 57.4721 58.3456 57.3236C60.4345 55.1886 63.6038 54.82 65.5494 54.82C65.6979 54.82 65.831 54.82 65.9641 54.8251C66.2252 54.8353 66.4403 55.0145 66.4403 55.2296L66.4454 55.2244Z" fill="white"/>
<path d="M54.8026 61.5322H42.535C42.0947 61.5322 41.7363 61.8906 41.7363 62.3309C41.7363 62.7713 42.0947 63.1297 42.535 63.1297H54.8026C55.2429 63.1297 55.6013 62.7713 55.6013 62.3309C55.6013 61.8906 55.2429 61.5322 54.8026 61.5322Z" fill="white"/>
<path d="M36.8828 33.6435C36.8828 34.007 37.1798 34.304 37.5433 34.304C41.6854 34.304 45.0595 37.673 45.0595 41.8202C45.0595 42.1837 45.3564 42.4806 45.7199 42.4806C46.0835 42.4806 46.3804 42.1837 46.3804 41.8202C46.3804 37.6781 49.7494 34.304 53.8966 34.304C54.2601 34.304 54.5571 34.007 54.5571 33.6435C54.5571 33.28 54.2601 32.983 53.8966 32.983C49.7545 32.983 46.3804 29.6141 46.3804 25.4669C46.3804 25.1034 46.0835 24.8064 45.7199 24.8064C45.3564 24.8064 45.0595 25.1034 45.0595 25.4669C45.0595 29.609 41.6905 32.983 37.5433 32.983C37.1798 32.983 36.8828 33.28 36.8828 33.6435Z" fill="white"/>
<path d="M29.9554 30.0904C31.9112 30.0904 33.5036 31.6827 33.5036 33.6386C33.5036 34.0021 33.8005 34.299 34.164 34.299C34.5276 34.299 34.8245 34.0021 34.8245 33.6386C34.8245 31.6827 36.4168 30.0904 38.3727 30.0904C38.7362 30.0904 39.0332 29.7934 39.0332 29.4299C39.0332 29.0664 38.7362 28.7694 38.3727 28.7694C36.4168 28.7694 34.8245 27.1771 34.8245 25.2213C34.8245 24.8578 34.5276 24.5608 34.164 24.5608C33.8005 24.5608 33.5036 24.8578 33.5036 25.2213C33.5036 27.1771 31.9112 28.7694 29.9554 28.7694C29.5919 28.7694 29.2949 29.0664 29.2949 29.4299C29.2949 29.7934 29.5919 30.0904 29.9554 30.0904Z" fill="white"/>
<path d="M49.5498 29.0817C49.4525 29.2046 49.4064 29.348 49.4064 29.4913C49.4064 29.6859 49.4935 29.8804 49.6624 30.0084C49.9491 30.2337 50.3639 30.1825 50.5891 29.8958C51.5671 28.6516 53.3744 28.4366 54.6186 29.4094C54.9053 29.6347 55.32 29.5835 55.5453 29.2968C55.6426 29.1739 55.6887 29.0305 55.6887 28.8872C55.6887 28.6926 55.6016 28.498 55.4327 28.37C54.1885 27.3972 53.9735 25.5899 54.9463 24.3457C55.0435 24.2228 55.0896 24.0795 55.0896 23.9361C55.0896 23.7416 55.0026 23.547 54.8336 23.419C54.7107 23.3217 54.5674 23.2756 54.4291 23.2756C54.2346 23.2756 54.04 23.3627 53.912 23.5265C52.9341 24.7707 51.1267 24.9857 49.8826 24.0129C49.5959 23.7876 49.1811 23.8388 48.9559 24.1256C48.8586 24.2484 48.8125 24.3918 48.8125 24.5352C48.8125 24.7297 48.8995 24.9243 49.0685 25.0523C50.3127 26.0302 50.5277 27.8376 49.5549 29.0817H49.5498Z" fill="white"/>
<path d="M40.6774 41.1598C38.7215 41.1598 37.1292 39.5675 37.1292 37.6117C37.1292 37.2481 36.8322 36.9512 36.4687 36.9512C36.1052 36.9512 35.8082 37.2481 35.8082 37.6117C35.8082 39.5675 34.2159 41.1598 32.2601 41.1598C31.8966 41.1598 31.5996 41.4568 31.5996 41.8203C31.5996 42.1838 31.8966 42.4808 32.2601 42.4808C34.2159 42.4808 35.8082 44.0731 35.8082 46.0289C35.8082 46.3925 36.1052 46.6894 36.4687 46.6894C36.8322 46.6894 37.1292 46.3925 37.1292 46.0289C37.1292 44.0731 38.7215 42.4808 40.6774 42.4808C41.0409 42.4808 41.3379 42.1838 41.3379 41.8203C41.3379 41.4568 41.0409 41.1598 40.6774 41.1598Z" fill="white"/>
<path d="M70.1521 44.2625H65.7847L64.0593 37.627C63.6036 35.8555 62.0523 34.6165 60.291 34.6165H56.6302V36.2139H60.291C61.3201 36.2139 62.2315 36.9563 62.5079 38.0213L64.9758 47.5137C64.9758 47.5137 64.9758 47.5137 64.9758 47.5189H32.3563C32.3563 47.5189 32.3563 47.5086 32.3614 47.5035L33.2062 44.2574H31.5524H27.1799C25.7924 44.2574 24.666 45.4299 24.666 46.8686V47.3909C24.666 48.6606 25.5415 49.7409 26.7499 49.9611L28.3831 50.2581L26.4887 52.6184C25.9767 53.2686 25.6951 54.0827 25.6951 54.9173V62.1467C25.6951 64.3893 27.2516 66.2529 29.2945 66.6267V69.9957C29.2945 71.4958 30.5131 72.7093 32.0081 72.7093H38.1879C39.683 72.7093 40.8964 71.4907 40.8964 69.9957V66.6984H56.4407V69.9957C56.4407 71.4958 57.6593 72.7093 59.1492 72.7093H65.3291C66.8292 72.7093 68.0427 71.4907 68.0427 69.9957V66.6267C70.0855 66.2529 71.642 64.3893 71.642 62.1467V54.9173C71.642 54.0827 71.3604 53.2686 70.8433 52.6184L68.9489 50.2581L70.5822 49.9611C71.7905 49.7409 72.666 48.6606 72.666 47.3909V46.8686C72.666 45.4299 71.5396 44.2574 70.1521 44.2574V44.2625ZM27.0366 48.3944C26.5911 48.3125 26.2686 47.8926 26.2686 47.396V46.8737C26.2686 46.3157 26.6782 45.8651 27.1851 45.8651H31.1377L30.8203 47.0939C30.7793 47.2321 30.723 47.3499 30.6462 47.4472L29.5249 48.8449L27.0366 48.3944ZM39.299 70.0008C39.299 70.6152 38.8023 71.1169 38.1879 71.1169H32.0081C31.3937 71.1169 30.8919 70.6152 30.8919 70.0008V66.7035H39.2939V70.0008H39.299ZM66.4452 70.0008C66.4452 70.6152 65.9435 71.1169 65.3291 71.1169H59.1492C58.5348 71.1169 58.0382 70.6152 58.0382 70.0008V66.7035H66.4401V70.0008H66.4452ZM69.594 53.6168C69.8859 53.9803 70.0446 54.4462 70.0446 54.9173V62.1518C70.0446 63.78 68.8107 65.1061 67.2439 65.1061H30.0932C30.0932 65.1061 30.0779 65.1061 30.0676 65.1061C30.0574 65.1061 30.0523 65.1061 30.042 65.1061C28.5265 65.1061 27.2875 63.78 27.2875 62.1518V54.9224C27.2875 54.4462 27.4462 53.9854 27.738 53.6219L31.3476 49.1214H65.9895L69.594 53.6168ZM71.0737 47.396C71.0737 47.8926 70.7511 48.3125 70.3057 48.3944L67.8174 48.8449L66.691 47.4369C66.6193 47.355 66.563 47.2373 66.5271 47.1041L66.2046 45.86H70.1572C70.659 45.86 71.0737 46.3105 71.0737 46.8686V47.3909V47.396Z" fill="white"/>
</g>
<defs>
<clipPath id="clip0_128_125">
<rect width="48" height="49.4387" fill="white" transform="translate(24.666 23.2808)"/>
</clipPath>
</defs>
</svg>
