<svg width="97" height="96" viewBox="0 0 97 96" fill="none" xmlns="http://www.w3.org/2000/svg">
<rect x="0.5" width="96" height="96" rx="48" fill="#1E3035"/>
<path d="M73.0298 42.854H67.7679L64.5179 36.4313C64.2857 35.9671 63.744 35.5801 63.2024 35.5801H53.6845V32.8718H60.1071C60.9583 32.8718 61.5774 32.1754 61.5774 31.4016V27.9968C61.5774 26.2171 60.1071 24.6694 58.25 24.6694H46.1012C44.3214 24.6694 42.7738 26.1397 42.7738 27.9968V31.4016C42.7738 32.2528 43.4702 32.8718 44.244 32.8718H50.6667V35.6575H41.2262C40.6845 35.6575 40.1429 35.9671 39.9107 36.5087L36.6607 42.854H31.3988C30.5476 42.854 29.9286 43.5504 29.9286 44.3242V51.9849H25.4405V43.3182C25.4405 42.4671 24.744 41.848 23.9702 41.848C23.1964 41.848 22.5 42.5444 22.5 43.3182V63.6694C22.5 64.5206 23.1964 65.1397 23.9702 65.1397C24.744 65.1397 25.4405 64.4432 25.4405 63.6694V55.0028H29.9286V62.6635C29.9286 63.5147 30.625 64.1337 31.3988 64.1337H36.6607L39.9107 70.479C40.1429 70.9432 40.6845 71.3301 41.2262 71.3301H63.2024C63.744 71.3301 64.2857 71.0206 64.5179 70.479L67.7679 64.1337H73.0298C73.881 64.1337 74.5 63.4373 74.5 62.6635V44.3242C74.5 43.473 73.881 42.854 73.0298 42.854ZM45.7917 27.9968C45.7917 27.8421 45.9464 27.6873 46.1012 27.6873H58.3274C58.4821 27.6873 58.6369 27.8421 58.6369 27.9968V29.9313H45.7917V27.9968ZM71.5595 61.1932H66.8393C66.2976 61.1932 65.756 61.5028 65.5238 61.9671L62.2738 68.3123H42.1548L38.9048 61.9671C38.6726 61.5028 38.131 61.1159 37.5893 61.1159H32.869V45.7944H37.5893C38.131 45.7944 38.6726 45.4849 38.9048 44.9432L42.1548 38.598H62.2738L65.5238 44.9432C65.756 45.4075 66.2976 45.7944 66.8393 45.7944H71.5595V61.1932Z" fill="white"/>
<path d="M57.3994 49.2765H52.2148L56.5482 44.3241C57.0898 43.705 57.0125 42.7765 56.3934 42.2348C55.7744 41.6931 54.8458 41.7705 54.3041 42.3896L47.8041 49.8181C47.4172 50.2824 47.3398 50.9015 47.572 51.4431C47.8041 51.9848 48.3458 52.2943 48.9648 52.2943H54.3815L50.0482 58.0205C49.5839 58.6396 49.6613 59.6455 50.3577 60.1098C50.5898 60.3419 50.9767 60.4193 51.2863 60.4193C51.7506 60.4193 52.2148 60.1872 52.447 59.8003L58.6375 51.5979C58.947 51.1336 59.0244 50.5145 58.7922 50.0503C58.4827 49.586 58.0184 49.2765 57.3994 49.2765Z" fill="white"/>
</svg>
