<svg width="97" height="96" viewBox="0 0 97 96" fill="none" xmlns="http://www.w3.org/2000/svg">
<rect x="0.5" width="96" height="96" rx="48" fill="#1E3035"/>
<path fill-rule="evenodd" clip-rule="evenodd" d="M47.584 28.7993V33.6653C47.584 34.1753 47.9979 34.5892 48.5078 34.5892C49.0177 34.5892 49.4316 34.1753 49.4316 33.6653V28.7993C49.4316 28.2894 49.0177 27.8755 48.5078 27.8755C47.9979 27.8755 47.584 28.2894 47.584 28.7993Z" fill="white"/>
<path fill-rule="evenodd" clip-rule="evenodd" d="M59.2234 21.9523C59.2234 20.1829 57.7865 18.7461 56.0171 18.7461H40.9836C39.2142 18.7461 37.7773 20.1829 37.7773 21.9523V26.5166C37.7773 28.286 39.2142 29.7229 40.9836 29.7229H56.0171C57.7865 29.7229 59.2234 28.286 59.2234 26.5166V21.9523ZM57.3758 21.9523V26.5166C57.3758 27.2661 56.7667 27.8752 56.0171 27.8752H40.9836C40.2341 27.8752 39.625 27.2661 39.625 26.5166V21.9523C39.625 21.2022 40.2341 20.5937 40.9836 20.5937H56.0171C56.7667 20.5937 57.3758 21.2022 57.3758 21.9523Z" fill="white"/>
<path fill-rule="evenodd" clip-rule="evenodd" d="M30.6544 77.0107C30.825 77.1677 31.0479 77.2545 31.2801 77.2545H65.7199C65.9521 77.2545 66.175 77.1677 66.3456 77.0107C73.1233 70.7743 70.5551 63.4546 66.106 56.7034C64.1432 53.7244 64.6384 51.0324 65.3504 48.2529C66.1615 45.0867 67.2362 41.8115 66.228 37.9961C65.5253 35.338 63.1646 33.8063 60.1992 33.0581C56.2243 32.0542 51.1741 32.4354 48.4988 32.7624C45.8246 32.4354 40.7751 32.0542 36.8008 33.0581C33.8354 33.8063 31.4747 35.338 30.772 37.9961C29.7638 41.8115 30.8385 45.0867 31.6496 48.2529C32.3616 51.0324 32.8567 53.7244 30.894 56.7034C26.4449 63.4546 23.8767 70.7743 30.6544 77.0107ZM31.6459 75.4069C25.9953 69.9521 28.5647 63.5956 32.4367 57.7202C34.745 54.2171 34.277 51.0626 33.4394 47.7947C32.7015 44.9131 31.6404 41.9402 32.5587 38.4685C33.0932 36.4466 34.9975 35.4187 37.2529 34.849C41.0522 33.8901 45.8942 34.299 48.3854 34.6094C48.4618 34.6193 48.5382 34.6193 48.6146 34.6094C51.1058 34.299 55.9478 33.8901 59.7471 34.849C62.0025 35.4187 63.9068 36.4466 64.4413 38.4685C65.3596 41.9402 64.2985 44.9131 63.5606 47.7947C62.723 51.0626 62.255 54.2171 64.5633 57.7202C68.4353 63.5956 71.0047 69.9521 65.3541 75.4069C65.3534 75.4069 31.6459 75.4069 31.6459 75.4069Z" fill="white"/>
<path fill-rule="evenodd" clip-rule="evenodd" d="M36.3346 34.5281C40.8194 48.3114 40.7221 62.0953 36.3328 75.8786C36.1782 76.3645 36.4467 76.8843 36.9326 77.0389C37.4186 77.1941 37.9384 76.925 38.0929 76.4391C42.603 62.2782 42.6991 48.1174 38.0911 33.9565C37.9334 33.4719 37.4118 33.2058 36.9271 33.3641C36.4424 33.5217 36.1769 34.0434 36.3346 34.5281Z" fill="white"/>
<path fill-rule="evenodd" clip-rule="evenodd" d="M58.9086 33.9565C54.3006 48.1174 54.3967 62.2782 58.9067 76.4391C59.0613 76.925 59.5811 77.1941 60.067 77.0389C60.5529 76.8843 60.8215 76.3645 60.6669 75.8786C56.2775 62.0953 56.1802 48.3114 60.665 34.5281C60.8227 34.0434 60.5573 33.5217 60.0726 33.3641C59.5879 33.2058 59.0662 33.4719 58.9086 33.9565Z" fill="white"/>
<path fill-rule="evenodd" clip-rule="evenodd" d="M39.4551 42.6743H57.5612C58.0711 42.6743 58.485 42.2598 58.485 41.7505C58.485 41.2405 58.0711 40.8267 57.5612 40.8267H39.4551C38.9451 40.8267 38.5312 41.2405 38.5312 41.7505C38.5312 42.2598 38.9451 42.6743 39.4551 42.6743Z" fill="white"/>
<path fill-rule="evenodd" clip-rule="evenodd" d="M39.4551 68.2651H57.5612C58.0711 68.2651 58.485 67.8512 58.485 67.3413C58.485 66.8313 58.0711 66.4175 57.5612 66.4175H39.4551C38.9451 66.4175 38.5312 66.8313 38.5312 67.3413C38.5312 67.8512 38.9451 68.2651 39.4551 68.2651Z" fill="white"/>
</svg>
