<svg width="97" height="96" viewBox="0 0 97 96" fill="none" xmlns="http://www.w3.org/2000/svg">
<rect x="0.5" width="96" height="96" rx="48" fill="#1E3035"/>
<path d="M28.2691 47.4809C26.9391 47.5182 25.8984 48.5448 25.8984 49.8188V52.5768C25.8984 53.8647 27.0021 54.9147 28.36 54.9147H36.7553C37.7656 54.9147 38.6593 54.3384 39.0349 53.4494C39.3966 52.5908 39.2076 51.6365 38.5426 50.9575C35.43 47.7773 30.7637 47.4109 28.2717 47.4833L28.2691 47.4809ZM37.3154 52.7237C37.2828 52.8007 37.1498 53.0457 36.7554 53.0457H28.3602C28.0382 53.0457 27.7652 52.831 27.7652 52.5744V49.8164C27.7652 49.5645 28.0148 49.3545 28.3205 49.3451C28.4722 49.3405 28.6332 49.3381 28.8035 49.3381C31.0761 49.3381 34.772 49.7698 37.2077 52.2594C37.3827 52.4367 37.3617 52.6094 37.315 52.7214L37.3154 52.7237Z" fill="white"/>
<path d="M73.5678 37.0279H68.4696L66.456 29.2836C65.924 27.2164 64.1157 25.7744 62.0624 25.7744H34.9407C32.8874 25.7744 31.0815 27.2164 30.5471 29.2813L28.5335 37.0255H23.4353C21.8183 37.0255 20.5 38.3905 20.5 40.0705V40.6818C20.5 42.1657 21.5219 43.4257 22.9313 43.68L24.8352 44.0253L22.6256 46.7809C22.026 47.5369 21.697 48.4889 21.697 49.4618V57.8989C21.697 60.5145 23.5146 62.6868 25.8968 63.1254V67.057C25.8968 68.8046 27.3178 70.2256 29.0654 70.2256H36.2726C38.0156 70.2256 39.4342 68.8046 39.4342 67.057V63.2094H57.5681V67.057C57.5681 68.8046 58.9868 70.2256 60.7297 70.2256H67.9369C69.6846 70.2256 71.1055 68.8046 71.1055 67.057V63.1254C73.4878 62.6891 75.3054 60.5145 75.3054 57.8989V49.4618C75.3054 48.4889 74.974 47.5369 74.3721 46.7786L72.1648 44.0276L74.0687 43.6823C75.4781 43.428 76.5 42.1657 76.5 40.6841V40.0728C76.5 38.3928 75.1841 37.0279 73.5647 37.0279H73.5678ZM32.3554 29.7502C32.6773 28.5089 33.739 27.6409 34.9406 27.6409H62.0623C63.264 27.6409 64.3279 28.5089 64.6476 29.7502L67.5268 40.8238C67.5268 40.8238 67.5291 40.8285 67.5291 40.8308L29.4735 40.8331C29.4759 40.8261 29.4782 40.8191 29.4805 40.8121L32.3554 29.7502ZM23.2672 41.8458C22.7492 41.7525 22.3712 41.2625 22.3712 40.6838V40.0725C22.3712 39.4239 22.8495 38.8942 23.4399 38.8942H28.0528L27.6794 40.3292C27.6328 40.4925 27.5674 40.6301 27.4764 40.7398L26.1675 42.3708L23.2649 41.8458L23.2672 41.8458ZM37.5699 67.0567C37.5699 67.7754 36.9889 68.3587 36.2749 68.3587H29.0677C28.3491 68.3587 27.7658 67.7754 27.7658 67.0567V63.2092H37.5701L37.5699 67.0567ZM69.2414 67.0567C69.2414 67.7754 68.6581 68.3587 67.9394 68.3587H60.7322C60.0183 68.3587 59.4372 67.7754 59.4372 67.0567V63.2092H69.2416L69.2414 67.0567ZM73.4413 49.4616V57.8987C73.4413 59.798 72.0016 61.3426 70.1747 61.3426H26.8322C26.8229 61.3426 26.8135 61.3472 26.8042 61.3472C26.7949 61.3472 26.7855 61.3426 26.7762 61.3426C25.0076 61.3426 23.5656 59.798 23.5656 57.8987V49.4616C23.5656 48.9086 23.7523 48.3696 24.0883 47.9449L28.2975 42.6974H68.7095L72.9164 47.9402C73.2548 48.3672 73.4414 48.9062 73.4414 49.4592L73.4413 49.4616ZM74.6359 40.684C74.6359 41.2627 74.2602 41.7527 73.7399 41.846L70.8373 42.371L69.5214 40.7283C69.4397 40.6304 69.3744 40.4927 69.3324 40.341L68.9567 38.8921H73.5696C74.1576 38.8921 74.6383 39.4194 74.6383 40.0704V40.6817L74.6359 40.684Z" fill="white"/>
<path d="M58.4642 50.9573C57.7992 51.6362 57.6102 52.5906 57.9719 53.4492C58.3452 54.3405 59.2412 54.9145 60.2515 54.9145H68.6468C70.0047 54.9145 71.1084 53.8645 71.1084 52.5765V49.8186C71.1084 48.5447 70.0677 47.518 68.7377 47.4807C66.2411 47.4107 61.5795 47.7746 58.4669 50.9549L58.4642 50.9573ZM69.2416 49.8187V52.5766C69.2416 52.8309 68.9686 53.0479 68.6466 53.0479H60.2513C59.8593 53.0479 59.724 52.8006 59.6914 52.7259C59.6447 52.6139 59.6237 52.4413 59.7987 52.2639C62.2346 49.7743 65.9331 49.3427 68.2029 49.3427C68.3733 49.3427 68.5342 49.345 68.6859 49.3497C68.9916 49.359 69.2412 49.569 69.2412 49.821L69.2416 49.8187Z" fill="white"/>
<path d="M55.6597 57.1775H41.3474C40.8317 57.1775 40.4141 57.5951 40.4141 58.1108C40.4141 58.6264 40.8317 59.0441 41.3474 59.0441H55.6597C56.1753 59.0441 56.593 58.6264 56.593 58.1108C56.593 57.5951 56.1753 57.1775 55.6597 57.1775Z" fill="white"/>
</svg>
