<svg width="97" height="96" viewBox="0 0 97 96" fill="none" xmlns="http://www.w3.org/2000/svg">
<rect x="0.833984" width="96" height="96" rx="48" fill="#1E3035"/>
<path d="M79.4753 37.4C70.5495 30.3 59.9324 26.7 49.2213 26.6C49.1274 26.6 49.0334 26.5 48.8455 26.5C48.6576 26.5 48.5636 26.5 48.4697 26.6C37.7586 26.7 27.1415 30.3 18.2157 37.4C17.8398 37.7 17.7459 38.2 17.9338 38.7L25.9201 54.9C25.7322 55.5 25.5443 56.1 25.3564 56.8V56.9C25.2624 57.5 25.1685 58.2 25.1685 58.9C25.1685 64.8 29.6784 69.5 35.1278 69.5C40.5773 69.5 45.0872 64.7 45.0872 58.9C45.0872 58.2 44.9933 57.6 44.8993 56.9V56.8C44.6175 55.2 43.9598 53.8 43.1142 52.5C45.2752 52.1 47.4362 51.9 49.5972 52V62.5C49.5972 63.1 49.973 63.5 50.5367 63.5H69.6099C70.1736 63.5 70.5495 63.1 70.5495 62.5V56.7L79.6633 38.8C79.9451 38.3 79.8512 37.7 79.4753 37.4ZM42.9262 56.4C41.5169 57.2 40.2015 57.7 38.7922 58.1C38.4163 56.3 36.913 54.9 35.1278 54.9C33.3427 54.9 31.8394 56.3 31.4635 58.1C30.1482 57.8 28.7388 57.2 27.3295 56.4C28.363 52.8 31.4635 50.2 35.1278 50.2C38.7922 50.2 41.9867 52.9 42.9262 56.4ZM35.2218 60.9C34.1883 60.9 33.3427 60 33.3427 58.9C33.3427 57.8 34.1883 56.9 35.2218 56.9C36.2553 56.9 37.1009 57.8 37.1009 58.9C37.1009 60 36.1614 60.9 35.2218 60.9ZM27.0476 58.9C27.0476 58.8 27.0476 58.7 27.0476 58.5C28.5509 59.3 30.1482 59.8 31.6515 60.2C32.0273 61.4 33.0608 62.4 34.1883 62.7V67.4C30.2421 66.9 27.0476 63.3 27.0476 58.9ZM36.1614 67.4V62.7C37.3828 62.4 38.3224 61.4 38.6982 60.2C40.2015 59.9 41.7048 59.3 43.3021 58.5C43.3021 58.6 43.3021 58.7 43.3021 58.9C43.3021 63.3 40.1075 66.9 36.1614 67.4ZM68.7643 61.4H51.4763V46.3H68.6703V61.4H68.7643ZM70.6434 52.4V45.3C70.6434 44.7 70.2676 44.3 69.7039 44.3H50.5367C49.973 44.3 49.5972 44.7 49.5972 45.3V50C46.8724 49.9 44.2416 50.2 41.6109 50.8C39.8257 49.2 37.5707 48.3 35.1278 48.3C31.7454 48.3 28.7388 50.1 26.9536 52.8L20.0008 38.5C28.269 32.1 38.0405 28.8 47.9059 28.6V32.5H44.3356C43.7719 32.5 43.396 32.9 43.396 33.5C43.396 34.1 43.7719 34.5 44.3356 34.5H48.8455H53.3554C53.9192 34.5 54.295 34.1 54.295 33.5C54.295 32.9 53.9192 32.5 53.3554 32.5H49.7851V28.6C59.6505 28.8 69.422 32.1 77.6902 38.5L70.6434 52.4Z" fill="white"/>
<path d="M55.3977 53.6041L58.6862 55.0041L60.0016 58.5041C60.1895 58.9041 60.4714 59.1041 60.8472 59.1041C61.223 59.1041 61.5989 58.8041 61.6928 58.4041L64.2296 50.3041C64.3236 49.9041 64.2296 49.5041 64.0417 49.3041C63.7599 49.0041 63.384 48.9041 63.1022 49.1041L55.4917 51.8041C55.1159 51.9041 54.834 52.3041 54.834 52.7041C54.834 53.0041 55.0219 53.4041 55.3977 53.6041ZM61.8807 51.5041L60.7533 55.2041L60.2835 53.9041C60.1895 53.6041 60.0016 53.5041 59.7197 53.3041L58.4983 52.8041L61.8807 51.5041Z" fill="white"/>
</svg>
