<svg width="53" height="52" viewBox="0 0 53 52" fill="none" xmlns="http://www.w3.org/2000/svg">
<rect x="0.5" width="52" height="52" rx="26" fill="#284C57"/>
<path d="M17.2674 36C16.3967 36 15.6582 35.6969 15.052 35.0906C14.4457 34.4844 14.1426 33.7459 14.1426 32.8751V19.1249C14.1426 18.2541 14.4457 17.5156 15.052 16.9094C15.6582 16.3031 16.3967 16 17.2674 16H35.7344C36.6052 16 37.3437 16.3031 37.9499 16.9094C38.5562 17.5156 38.8593 18.2541 38.8593 19.1249V32.8751C38.8593 33.7459 38.5562 34.4844 37.9499 35.0906C37.3437 35.6969 36.6052 36 35.7344 36H17.2674ZM35.7344 21.9998L27.3366 27.3625C27.2071 27.4437 27.0711 27.5046 26.9287 27.5451C26.7862 27.5857 26.6436 27.606 26.5009 27.606C26.3582 27.606 26.2157 27.5857 26.0732 27.5451C25.9307 27.5046 25.7948 27.4437 25.6653 27.3625L17.2674 21.9998V32.8751H35.7344V21.9998ZM26.5009 25.0208L35.7344 19.1249H17.2674L26.5009 25.0208ZM17.2674 20.2781V20.3153V19.1249V20.3182V20.2781Z" fill="white"/>
</svg>
