<svg width="110" height="96" viewBox="0 0 110 96" fill="none" xmlns="http://www.w3.org/2000/svg">
<rect x="0.166016" width="96" height="96" rx="48" fill="#1E3035"/>
<rect x="69.666" width="40" height="40" rx="20" fill="#36464A"/>
<path d="M83.1177 29V25.9659L89.4842 20.392C89.9615 19.9602 90.3677 19.5653 90.7029 19.2074C91.0382 18.8437 91.2939 18.4801 91.47 18.1165C91.6461 17.7472 91.7342 17.3466 91.7342 16.9148C91.7342 16.4318 91.6291 16.0199 91.4189 15.679C91.2086 15.3324 90.9189 15.0653 90.5495 14.8778C90.1802 14.6903 89.7569 14.5966 89.2797 14.5966C88.7967 14.5966 88.3734 14.696 88.0098 14.8949C87.6461 15.0881 87.362 15.3693 87.1575 15.7386C86.9586 16.108 86.8592 16.5568 86.8592 17.0852H82.862C82.862 15.8977 83.1291 14.8722 83.6632 14.0085C84.1973 13.1449 84.9473 12.4801 85.9132 12.0142C86.8848 11.5426 88.0126 11.3068 89.2967 11.3068C90.6206 11.3068 91.7711 11.5284 92.7484 11.9716C93.7257 12.4148 94.4814 13.0341 95.0154 13.8295C95.5552 14.6193 95.8251 15.5369 95.8251 16.5824C95.8251 17.2472 95.6916 17.9062 95.4245 18.5597C95.1575 19.2131 94.6774 19.9347 93.9842 20.7244C93.2967 21.5142 92.3194 22.4602 91.0524 23.5625L88.9643 25.4886V25.5994H96.0382V29H83.1177Z" fill="white"/>
<g clip-path="url(#clip0_43_3597)">
<path d="M53.7884 55.1392H42.5352C41.8152 55.1392 41.2344 55.72 41.2344 56.4399C41.2344 57.1599 41.8152 57.7407 42.5352 57.7407H53.7884C54.5084 57.7407 55.0892 57.1599 55.0892 56.4399C55.0892 55.72 54.5084 55.1392 53.7884 55.1392Z" fill="white"/>
<path d="M63.9108 38.3682C63.5236 38.2956 63.1243 38.2593 62.725 38.2593H33.6057C31.8814 38.2593 30.266 38.9308 29.0439 40.1469C27.8278 41.363 27.1562 42.9784 27.1562 44.7027C27.1562 45.102 27.1926 45.5073 27.2652 45.8945L30.7803 64.4926C31.2703 67.0942 33.5512 68.9879 36.2012 68.9939H60.1174C62.7734 68.9939 65.0543 67.1003 65.5443 64.4866L69.0594 45.8824C69.7129 42.3915 67.4017 39.0155 63.9047 38.3561L63.9108 38.3682ZM66.4881 45.4166L63.0154 64.0147C62.7492 65.4183 61.5331 66.4045 60.0932 66.3984H36.2012C36.2012 66.3984 36.1649 66.3984 36.1528 66.3984C34.7734 66.3984 33.5694 65.4062 33.3092 64.0207L29.7941 45.4226C29.4008 43.3353 30.7803 41.3206 32.8676 40.9274C33.1217 40.879 33.3879 40.8548 33.642 40.8608H62.7129C64.8365 40.8608 66.5607 42.5851 66.5607 44.7087C66.5607 44.9507 66.5365 45.1867 66.4942 45.4166H66.4881Z" fill="white"/>
<path d="M62.229 27H34.0898C33.3699 27 32.7891 27.5808 32.7891 28.3008C32.7891 29.0207 33.3699 29.6016 34.0898 29.6016H62.229C62.949 29.6016 63.5298 29.0147 63.5298 28.3008C63.5298 27.5869 62.949 27 62.229 27Z" fill="white"/>
</g>
<defs>
<clipPath id="clip0_43_3597">
<rect width="42.0182" height="42" fill="white" transform="translate(27.1562 27)"/>
</clipPath>
</defs>
</svg>
