<svg width="111" height="96" viewBox="0 0 111 96" fill="none" xmlns="http://www.w3.org/2000/svg">
<rect x="0.833984" width="96" height="96" rx="48" fill="#1E3035"/>
<rect x="70.332" width="40" height="40" rx="20" fill="#36464A"/>
<path d="M93.7809 11.5455V29H89.5707V15.483H89.4684L85.565 17.8693V14.2216L89.869 11.5455H93.7809Z" fill="white"/>
<g clip-path="url(#clip0_43_3557)">
<path d="M54.4564 55.1392H43.2031C42.4832 55.1392 41.9023 55.72 41.9023 56.4399C41.9023 57.1599 42.4832 57.7407 43.2031 57.7407H54.4564C55.1763 57.7407 55.7571 57.1599 55.7571 56.4399C55.7571 55.72 55.1763 55.1392 54.4564 55.1392Z" fill="white"/>
<path d="M64.5788 38.3682C64.1915 38.2956 63.7922 38.2593 63.3929 38.2593H34.2737C32.5494 38.2593 30.934 38.9308 29.7119 40.1469C28.4958 41.363 27.8242 42.9784 27.8242 44.7027C27.8242 45.102 27.8605 45.5073 27.9331 45.8945L31.4482 64.4926C31.9383 67.0942 34.2192 68.9879 36.8692 68.9939H60.7853C63.4413 68.9939 65.7222 67.1003 66.2123 64.4866L69.7274 45.8824C70.3808 42.3915 68.0697 39.0155 64.5727 38.3561L64.5788 38.3682ZM67.1561 45.4166L63.6833 64.0147C63.4171 65.4183 62.2011 66.4045 60.7611 66.3984H36.8692C36.8692 66.3984 36.8329 66.3984 36.8208 66.3984C35.4413 66.3984 34.2374 65.4062 33.9772 64.0207L30.4621 45.4226C30.0688 43.3353 31.4482 41.3206 33.5355 40.9274C33.7896 40.879 34.0559 40.8548 34.31 40.8608H63.3808C65.5044 40.8608 67.2287 42.5851 67.2287 44.7087C67.2287 44.9507 67.2045 45.1867 67.1622 45.4166H67.1561Z" fill="white"/>
<path d="M62.897 27H34.7578C34.0378 27 33.457 27.5808 33.457 28.3008C33.457 29.0207 34.0378 29.6016 34.7578 29.6016H62.897C63.6169 29.6016 64.1977 29.0147 64.1977 28.3008C64.1977 27.5869 63.6169 27 62.897 27Z" fill="white"/>
</g>
<defs>
<clipPath id="clip0_43_3557">
<rect width="42.0182" height="42" fill="white" transform="translate(27.8242 27)"/>
</clipPath>
</defs>
</svg>
