<svg width="53" height="52" viewBox="0 0 53 52" fill="none" xmlns="http://www.w3.org/2000/svg">
<rect x="0.5" width="52" height="52" rx="26" fill="#284C57"/>
<path d="M34.9084 36C32.6503 36 30.4193 35.5085 28.2154 34.5256C26.0115 33.5426 24.0007 32.1448 22.1831 30.3322C20.3655 28.5195 18.9652 26.5096 17.9822 24.3024C16.9993 22.0952 16.5078 19.8609 16.5078 17.5994C16.5078 17.1424 16.6587 16.7616 16.9605 16.457C17.2623 16.1523 17.6396 16 18.0923 16H22.3494C22.824 16 23.2177 16.1257 23.5303 16.3772C23.8429 16.6287 24.0467 16.973 24.1414 17.4102L24.8121 20.789C24.887 21.2194 24.8807 21.5859 24.7932 21.8886C24.7057 22.1913 24.532 22.4576 24.2721 22.6877L21.6248 25.1527C21.9366 25.6939 22.3045 26.228 22.7283 26.755C23.1521 27.282 23.6342 27.8069 24.1746 28.3297C24.6699 28.825 25.1668 29.2708 25.6651 29.6672C26.1635 30.0635 26.6771 30.4152 27.206 30.7225L29.7891 28.1841C30.0567 27.9265 30.3676 27.7482 30.7219 27.6492C31.0762 27.5502 31.4509 27.5382 31.8461 27.6131L35.0827 28.3068C35.5375 28.4367 35.8862 28.6461 36.1289 28.9351C36.3716 29.224 36.4929 29.5871 36.4929 30.0243V34.4006C36.4929 34.8576 36.3402 35.2384 36.0349 35.543C35.7295 35.8477 35.354 36 34.9084 36ZM20.2799 22.5971L22.0054 20.9908L21.5869 18.7953H19.3443C19.4124 19.4465 19.5178 20.0886 19.6607 20.7217C19.8036 21.3547 20.01 21.9799 20.2799 22.5971ZM29.78 32.1121C30.406 32.3812 31.0477 32.5986 31.705 32.7645C32.3623 32.9303 33.0266 33.0496 33.6977 33.1222V30.8762L31.517 30.4049L29.78 32.1121Z" fill="white"/>
</svg>
