<svg width="110" height="96" viewBox="0 0 110 96" fill="none" xmlns="http://www.w3.org/2000/svg">
<rect x="0.5" width="96" height="96" rx="48" fill="#1E3035"/>
<g clip-path="url(#clip0_43_3435)">
<path d="M31.1615 53.2227C30.0198 53.2534 29.1289 54.1341 29.1289 55.2246V57.5901C29.1289 58.696 30.0761 59.592 31.2383 59.592H38.4371C39.3023 59.592 40.0703 59.1005 40.3929 58.3376C40.7052 57.6003 40.5414 56.7811 39.9731 56.2025C37.3055 53.4787 33.3068 53.1613 31.1718 53.2227H31.1615ZM38.9132 57.7181C38.8876 57.7846 38.7699 57.9945 38.4319 57.9945H31.2332C30.9567 57.9945 30.7212 57.8102 30.7212 57.5901V55.2246C30.7212 55.0096 30.9363 54.8304 31.1974 54.8201C31.3254 54.8201 31.4636 54.815 31.6121 54.815C33.5577 54.815 36.727 55.1837 38.8159 57.3187C38.9644 57.4723 38.9491 57.6208 38.9081 57.7129L38.9132 57.7181Z" fill="white"/>
<path d="M57.0429 56.2024C56.4746 56.7861 56.3107 57.6001 56.6231 58.3374C56.9405 59.1003 57.7085 59.5918 58.5789 59.5918H65.7776C66.9399 59.5918 67.8871 58.6907 67.8871 57.5899V55.2244C67.8871 54.1339 66.9962 53.2532 65.8544 53.2225C63.7143 53.1611 59.7207 53.4734 57.0531 56.2024H57.0429ZM66.2794 55.2244V57.5899C66.2794 57.8101 66.0439 57.9944 65.7674 57.9944H58.5687C58.2307 57.9944 58.1181 57.7845 58.0874 57.7179C58.0464 57.6206 58.0311 57.4721 58.1795 57.3236C60.2685 55.1886 63.4378 54.82 65.3834 54.82C65.5319 54.82 65.665 54.82 65.7981 54.8251C66.0592 54.8353 66.2743 55.0145 66.2743 55.2296L66.2794 55.2244Z" fill="white"/>
<path d="M54.6366 61.5322H42.369C41.9287 61.5322 41.5703 61.8906 41.5703 62.3309C41.5703 62.7713 41.9287 63.1297 42.369 63.1297H54.6366C55.0769 63.1297 55.4353 62.7713 55.4353 62.3309C55.4353 61.8906 55.0769 61.5322 54.6366 61.5322Z" fill="white"/>
<path d="M36.7168 33.6435C36.7168 34.007 37.0138 34.304 37.3773 34.304C41.5194 34.304 44.8934 37.673 44.8934 41.8202C44.8934 42.1837 45.1904 42.4806 45.5539 42.4806C45.9174 42.4806 46.2144 42.1837 46.2144 41.8202C46.2144 37.6781 49.5834 34.304 53.7306 34.304C54.0941 34.304 54.391 34.007 54.391 33.6435C54.391 33.28 54.0941 32.983 53.7306 32.983C49.5885 32.983 46.2144 29.6141 46.2144 25.4669C46.2144 25.1034 45.9174 24.8064 45.5539 24.8064C45.1904 24.8064 44.8934 25.1034 44.8934 25.4669C44.8934 29.609 41.5245 32.983 37.3773 32.983C37.0138 32.983 36.7168 33.28 36.7168 33.6435Z" fill="white"/>
<path d="M29.7894 30.0904C31.7452 30.0904 33.3375 31.6827 33.3375 33.6386C33.3375 34.0021 33.6345 34.299 33.998 34.299C34.3615 34.299 34.6585 34.0021 34.6585 33.6386C34.6585 31.6827 36.2508 30.0904 38.2067 30.0904C38.5702 30.0904 38.8671 29.7934 38.8671 29.4299C38.8671 29.0664 38.5702 28.7694 38.2067 28.7694C36.2508 28.7694 34.6585 27.1771 34.6585 25.2213C34.6585 24.8578 34.3615 24.5608 33.998 24.5608C33.6345 24.5608 33.3375 24.8578 33.3375 25.2213C33.3375 27.1771 31.7452 28.7694 29.7894 28.7694C29.4259 28.7694 29.1289 29.0664 29.1289 29.4299C29.1289 29.7934 29.4259 30.0904 29.7894 30.0904Z" fill="white"/>
<path d="M49.3838 29.0817C49.2865 29.2046 49.2404 29.348 49.2404 29.4913C49.2404 29.6859 49.3274 29.8804 49.4964 30.0084C49.7831 30.2337 50.1978 30.1825 50.4231 29.8958C51.401 28.6516 53.2084 28.4366 54.4526 29.4094C54.7393 29.6347 55.154 29.5835 55.3793 29.2968C55.4766 29.1739 55.5226 29.0305 55.5226 28.8872C55.5226 28.6926 55.4356 28.498 55.2666 28.37C54.0225 27.3972 53.8074 25.5899 54.7802 24.3457C54.8775 24.2228 54.9236 24.0795 54.9236 23.9361C54.9236 23.7416 54.8366 23.547 54.6676 23.419C54.5447 23.3217 54.4014 23.2756 54.2631 23.2756C54.0686 23.2756 53.874 23.3627 53.746 23.5265C52.7681 24.7707 50.9607 24.9857 49.7166 24.0129C49.4298 23.7876 49.0151 23.8388 48.7898 24.1256C48.6926 24.2484 48.6465 24.3918 48.6465 24.5352C48.6465 24.7297 48.7335 24.9243 48.9025 25.0523C50.1466 26.0302 50.3617 27.8376 49.3889 29.0817H49.3838Z" fill="white"/>
<path d="M40.5114 41.1598C38.5555 41.1598 36.9632 39.5675 36.9632 37.6117C36.9632 37.2481 36.6662 36.9512 36.3027 36.9512C35.9392 36.9512 35.6422 37.2481 35.6422 37.6117C35.6422 39.5675 34.0499 41.1598 32.0941 41.1598C31.7306 41.1598 31.4336 41.4568 31.4336 41.8203C31.4336 42.1838 31.7306 42.4808 32.0941 42.4808C34.0499 42.4808 35.6422 44.0731 35.6422 46.0289C35.6422 46.3925 35.9392 46.6894 36.3027 46.6894C36.6662 46.6894 36.9632 46.3925 36.9632 46.0289C36.9632 44.0731 38.5555 42.4808 40.5114 42.4808C40.8749 42.4808 41.1718 42.1838 41.1718 41.8203C41.1718 41.4568 40.8749 41.1598 40.5114 41.1598Z" fill="white"/>
<path d="M69.9861 44.2625H65.6187L63.8933 37.627C63.4376 35.8555 61.8862 34.6165 60.125 34.6165H56.4642V36.2139H60.125C61.1541 36.2139 62.0654 36.9563 62.3419 38.0213L64.8098 47.5137C64.8098 47.5137 64.8098 47.5137 64.8098 47.5189H32.1902C32.1902 47.5189 32.1902 47.5086 32.1954 47.5035L33.0402 44.2574H31.3864H27.0139C25.6264 44.2574 24.5 45.4299 24.5 46.8686V47.3909C24.5 48.6606 25.3755 49.7409 26.5838 49.9611L28.2171 50.2581L26.3227 52.6184C25.8107 53.2686 25.5291 54.0827 25.5291 54.9173V62.1467C25.5291 64.3893 27.0856 66.2529 29.1285 66.6267V69.9957C29.1285 71.4958 30.347 72.7093 31.8421 72.7093H38.0219C39.517 72.7093 40.7304 71.4907 40.7304 69.9957V66.6984H56.2747V69.9957C56.2747 71.4958 57.4933 72.7093 58.9832 72.7093H65.163C66.6632 72.7093 67.8766 71.4907 67.8766 69.9957V66.6267C69.9195 66.2529 71.476 64.3893 71.476 62.1467V54.9173C71.476 54.0827 71.1944 53.2686 70.6773 52.6184L68.7829 50.2581L70.4162 49.9611C71.6245 49.7409 72.5 48.6606 72.5 47.3909V46.8686C72.5 45.4299 71.3736 44.2574 69.9861 44.2574V44.2625ZM26.8706 48.3944C26.4251 48.3125 26.1026 47.8926 26.1026 47.396V46.8737C26.1026 46.3157 26.5122 45.8651 27.019 45.8651H30.9717L30.6542 47.0939C30.6133 47.2321 30.557 47.3499 30.4802 47.4472L29.3589 48.8449L26.8706 48.3944ZM39.133 70.0008C39.133 70.6152 38.6363 71.1169 38.0219 71.1169H31.8421C31.2277 71.1169 30.7259 70.6152 30.7259 70.0008V66.7035H39.1278V70.0008H39.133ZM66.2792 70.0008C66.2792 70.6152 65.7774 71.1169 65.163 71.1169H58.9832C58.3688 71.1169 57.8722 70.6152 57.8722 70.0008V66.7035H66.2741V70.0008H66.2792ZM69.428 53.6168C69.7198 53.9803 69.8786 54.4462 69.8786 54.9173V62.1518C69.8786 63.78 68.6446 65.1061 67.0779 65.1061H29.9272C29.9272 65.1061 29.9118 65.1061 29.9016 65.1061C29.8914 65.1061 29.8862 65.1061 29.876 65.1061C28.3605 65.1061 27.1214 63.78 27.1214 62.1518V54.9224C27.1214 54.4462 27.2802 53.9854 27.572 53.6219L31.1816 49.1214H65.8235L69.428 53.6168ZM70.9077 47.396C70.9077 47.8926 70.5851 48.3125 70.1397 48.3944L67.6514 48.8449L66.525 47.4369C66.4533 47.355 66.397 47.2373 66.3611 47.1041L66.0386 45.86H69.9912C70.493 45.86 70.9077 46.3105 70.9077 46.8686V47.3909V47.396Z" fill="white"/>
</g>
<rect x="70" width="40" height="40" rx="20" fill="#36464A"/>
<path d="M83.4517 29V25.9659L89.8182 20.392C90.2955 19.9602 90.7017 19.5653 91.0369 19.2074C91.3722 18.8437 91.6278 18.4801 91.804 18.1165C91.9801 17.7472 92.0682 17.3466 92.0682 16.9148C92.0682 16.4318 91.9631 16.0199 91.7528 15.679C91.5426 15.3324 91.2528 15.0653 90.8835 14.8778C90.5142 14.6903 90.0909 14.5966 89.6136 14.5966C89.1307 14.5966 88.7074 14.696 88.3438 14.8949C87.9801 15.0881 87.696 15.3693 87.4915 15.7386C87.2926 16.108 87.1932 16.5568 87.1932 17.0852H83.196C83.196 15.8977 83.4631 14.8722 83.9972 14.0085C84.5313 13.1449 85.2813 12.4801 86.2472 12.0142C87.2188 11.5426 88.3466 11.3068 89.6307 11.3068C90.9545 11.3068 92.1051 11.5284 93.0824 11.9716C94.0597 12.4148 94.8153 13.0341 95.3494 13.8295C95.8892 14.6193 96.1591 15.5369 96.1591 16.5824C96.1591 17.2472 96.0256 17.9062 95.7585 18.5597C95.4915 19.2131 95.0114 19.9347 94.3182 20.7244C93.6307 21.5142 92.6534 22.4602 91.3864 23.5625L89.2983 25.4886V25.5994H96.3722V29H83.4517Z" fill="white"/>
<defs>
<clipPath id="clip0_43_3435">
<rect width="48" height="49.4387" fill="white" transform="translate(24.5 23.2808)"/>
</clipPath>
</defs>
</svg>
