<svg width="17" height="16" viewBox="0 0 17 16" fill="none" xmlns="http://www.w3.org/2000/svg">
<path d="M10.805 16C9.12157 16 7.61901 15.5467 6.2973 14.6402C4.97557 13.7337 4.03558 12.4993 3.47731 10.9369H1.61811C1.30748 10.9369 1.04347 10.8283 0.826082 10.6109C0.608694 10.3935 0.5 10.1295 0.5 9.81886C0.5 9.50821 0.608694 9.2442 0.826082 9.02683C1.04347 8.80944 1.30748 8.70075 1.61811 8.70075H3.04988C3.01563 8.45066 3.00203 8.19934 3.00906 7.9468C3.01609 7.69426 3.0297 7.47842 3.04988 7.29925H1.61811C1.30748 7.29925 1.04347 7.19056 0.826082 6.97317C0.608694 6.7558 0.5 6.49179 0.5 6.18114C0.5 5.87051 0.608694 5.6065 0.826082 5.38911C1.04347 5.17174 1.30748 5.06305 1.61811 5.06305H3.47731C4.05943 3.57226 5.00539 2.35572 6.31519 1.41343C7.62497 0.471145 9.12157 0 10.805 0C11.6843 0 12.513 0.131464 13.2911 0.394391C14.0692 0.657332 14.7986 1.02575 15.4791 1.49966C15.7237 1.67209 15.855 1.9121 15.8731 2.21968C15.8911 2.52726 15.7879 2.78623 15.5635 2.99657C15.3391 3.22099 15.0696 3.3387 14.755 3.34971C14.4404 3.36071 14.1488 3.28305 13.8804 3.11673C13.4242 2.82933 12.9373 2.61073 12.4197 2.46092C11.9021 2.31111 11.3639 2.2362 10.805 2.2362C9.76056 2.2362 8.80498 2.50342 7.93821 3.03785C7.07145 3.57227 6.42283 4.24734 5.99236 5.06305H10.0565C10.3672 5.06305 10.6312 5.17174 10.8486 5.38911C11.0659 5.6065 11.1746 5.87051 11.1746 6.18114C11.1746 6.49179 11.0659 6.7558 10.8486 6.97317C10.6312 7.19056 10.3672 7.29925 10.0565 7.29925H5.29526C5.25489 7.59153 5.23777 7.85599 5.24389 8.09263C5.25001 8.32927 5.26713 8.53198 5.29526 8.70075H10.0565C10.3672 8.70075 10.6312 8.80944 10.8486 9.02683C11.0659 9.2442 11.1746 9.50821 11.1746 9.81886C11.1746 10.1295 11.0659 10.3935 10.8486 10.6109C10.6312 10.8283 10.3672 10.9369 10.0565 10.9369H5.93272C6.395 11.8163 7.06152 12.5072 7.93226 13.0098C8.803 13.5125 9.76056 13.7638 10.805 13.7638C11.3639 13.7638 11.9021 13.6854 12.4197 13.5285C12.9373 13.3717 13.4242 13.1496 13.8804 12.8622C14.1488 12.6959 14.4404 12.6217 14.755 12.6397C15.0696 12.6578 15.3391 12.779 15.5635 13.0034C15.7879 13.2138 15.8911 13.4708 15.8731 13.7744C15.855 14.078 15.7237 14.316 15.4791 14.4884C14.7986 14.9703 14.0692 15.3427 13.2911 15.6056C12.513 15.8685 11.6843 16 10.805 16Z" fill="#F79734"/>
</svg>
