<svg width="97" height="96" viewBox="0 0 97 96" fill="none" xmlns="http://www.w3.org/2000/svg">
<rect x="0.5" width="96" height="96" rx="48" fill="#2A4E58"/>
<g clip-path="url(#clip0_43_3498)">
<path d="M31.1615 53.2225C30.0198 53.2532 29.1289 54.1338 29.1289 55.2244V57.5898C29.1289 58.6957 30.0761 59.5917 31.2383 59.5917H38.4371C39.3023 59.5917 40.0703 59.1002 40.3929 58.3373C40.7052 57.6001 40.5414 56.7809 39.9731 56.2023C37.3055 53.4785 33.3068 53.161 31.1718 53.2225H31.1615ZM38.9132 57.7178C38.8876 57.7844 38.7699 57.9943 38.4319 57.9943H31.2332C30.9567 57.9943 30.7212 57.81 30.7212 57.5898V55.2244C30.7212 55.0093 30.9363 54.8301 31.1974 54.8199C31.3254 54.8199 31.4636 54.8148 31.6121 54.8148C33.5577 54.8148 36.727 55.1834 38.8159 57.3185C38.9644 57.4721 38.9491 57.6205 38.9081 57.7127L38.9132 57.7178Z" fill="white"/>
<path d="M57.0429 56.2024C56.4746 56.7861 56.3107 57.6001 56.6231 58.3374C56.9405 59.1003 57.7085 59.5918 58.5789 59.5918H65.7776C66.9399 59.5918 67.8871 58.6907 67.8871 57.5899V55.2244C67.8871 54.1339 66.9962 53.2532 65.8544 53.2225C63.7143 53.1611 59.7207 53.4734 57.0531 56.2024H57.0429ZM66.2794 55.2244V57.5899C66.2794 57.8101 66.0439 57.9944 65.7674 57.9944H58.5687C58.2307 57.9944 58.1181 57.7845 58.0874 57.7179C58.0464 57.6206 58.0311 57.4721 58.1795 57.3236C60.2685 55.1886 63.4378 54.82 65.3834 54.82C65.5319 54.82 65.665 54.82 65.7981 54.8251C66.0592 54.8353 66.2743 55.0145 66.2743 55.2296L66.2794 55.2244Z" fill="white"/>
<path d="M54.6366 61.5322H42.369C41.9287 61.5322 41.5703 61.8906 41.5703 62.3309C41.5703 62.7713 41.9287 63.1297 42.369 63.1297H54.6366C55.0769 63.1297 55.4353 62.7713 55.4353 62.3309C55.4353 61.8906 55.0769 61.5322 54.6366 61.5322Z" fill="white"/>
<path d="M36.7168 33.6438C36.7168 34.0073 37.0138 34.3042 37.3773 34.3042C41.5194 34.3042 44.8934 37.6732 44.8934 41.8204C44.8934 42.1839 45.1904 42.4809 45.5539 42.4809C45.9174 42.4809 46.2144 42.1839 46.2144 41.8204C46.2144 37.6783 49.5834 34.3042 53.7306 34.3042C54.0941 34.3042 54.391 34.0073 54.391 33.6438C54.391 33.2802 54.0941 32.9833 53.7306 32.9833C49.5885 32.9833 46.2144 29.6143 46.2144 25.4671C46.2144 25.1036 45.9174 24.8066 45.5539 24.8066C45.1904 24.8066 44.8934 25.1036 44.8934 25.4671C44.8934 29.6092 41.5245 32.9833 37.3773 32.9833C37.0138 32.9833 36.7168 33.2802 36.7168 33.6438Z" fill="white"/>
<path d="M29.7894 30.0906C31.7452 30.0906 33.3375 31.683 33.3375 33.6388C33.3375 34.0023 33.6345 34.2993 33.998 34.2993C34.3615 34.2993 34.6585 34.0023 34.6585 33.6388C34.6585 31.683 36.2508 30.0906 38.2067 30.0906C38.5702 30.0906 38.8671 29.7937 38.8671 29.4302C38.8671 29.0666 38.5702 28.7697 38.2067 28.7697C36.2508 28.7697 34.6585 27.1774 34.6585 25.2215C34.6585 24.858 34.3615 24.561 33.998 24.561C33.6345 24.561 33.3375 24.858 33.3375 25.2215C33.3375 27.1774 31.7452 28.7697 29.7894 28.7697C29.4259 28.7697 29.1289 29.0666 29.1289 29.4302C29.1289 29.7937 29.4259 30.0906 29.7894 30.0906Z" fill="white"/>
<path d="M49.3838 29.082C49.2865 29.2048 49.2404 29.3482 49.2404 29.4916C49.2404 29.6861 49.3274 29.8807 49.4964 30.0087C49.7831 30.234 50.1978 30.1828 50.4231 29.896C51.401 28.6519 53.2084 28.4368 54.4526 29.4096C54.7393 29.6349 55.154 29.5837 55.3793 29.297C55.4766 29.1741 55.5226 29.0308 55.5226 28.8874C55.5226 28.6928 55.4356 28.4983 55.2666 28.3703C54.0225 27.3975 53.8074 25.5901 54.7802 24.346C54.8775 24.2231 54.9236 24.0797 54.9236 23.9364C54.9236 23.7418 54.8366 23.5472 54.6676 23.4192C54.5447 23.322 54.4014 23.2759 54.2631 23.2759C54.0686 23.2759 53.874 23.3629 53.746 23.5268C52.7681 24.7709 50.9607 24.986 49.7166 24.0132C49.4298 23.7879 49.0151 23.8391 48.7898 24.1258C48.6926 24.2487 48.6465 24.392 48.6465 24.5354C48.6465 24.73 48.7335 24.9245 48.9025 25.0525C50.1466 26.0304 50.3617 27.8378 49.3889 29.082H49.3838Z" fill="white"/>
<path d="M40.5114 41.1598C38.5555 41.1598 36.9632 39.5675 36.9632 37.6117C36.9632 37.2481 36.6662 36.9512 36.3027 36.9512C35.9392 36.9512 35.6422 37.2481 35.6422 37.6117C35.6422 39.5675 34.0499 41.1598 32.0941 41.1598C31.7306 41.1598 31.4336 41.4568 31.4336 41.8203C31.4336 42.1838 31.7306 42.4808 32.0941 42.4808C34.0499 42.4808 35.6422 44.0731 35.6422 46.0289C35.6422 46.3925 35.9392 46.6894 36.3027 46.6894C36.6662 46.6894 36.9632 46.3925 36.9632 46.0289C36.9632 44.0731 38.5555 42.4808 40.5114 42.4808C40.8749 42.4808 41.1718 42.1838 41.1718 41.8203C41.1718 41.4568 40.8749 41.1598 40.5114 41.1598Z" fill="white"/>
<path d="M69.9861 44.2623H65.6187L63.8933 37.6268C63.4376 35.8553 61.8862 34.6162 60.125 34.6162H56.4642V36.2137H60.125C61.1541 36.2137 62.0654 36.9561 62.3419 38.021L64.8098 47.5135C64.8098 47.5135 64.8098 47.5135 64.8098 47.5186H32.1902C32.1902 47.5186 32.1902 47.5084 32.1954 47.5033L33.0402 44.2572H31.3864H27.0139C25.6264 44.2572 24.5 45.4297 24.5 46.8684V47.3906C24.5 48.6604 25.3755 49.7407 26.5838 49.9609L28.2171 50.2578L26.3227 52.6181C25.8107 53.2684 25.5291 54.0825 25.5291 54.917V62.1465C25.5291 64.389 27.0856 66.2527 29.1285 66.6264V69.9954C29.1285 71.4956 30.347 72.709 31.8421 72.709H38.0219C39.517 72.709 40.7304 71.4904 40.7304 69.9954V66.6981H56.2747V69.9954C56.2747 71.4956 57.4933 72.709 58.9832 72.709H65.163C66.6632 72.709 67.8766 71.4904 67.8766 69.9954V66.6264C69.9195 66.2527 71.476 64.389 71.476 62.1465V54.917C71.476 54.0825 71.1944 53.2684 70.6773 52.6181L68.7829 50.2578L70.4162 49.9609C71.6245 49.7407 72.5 48.6604 72.5 47.3906V46.8684C72.5 45.4297 71.3736 44.2572 69.9861 44.2572V44.2623ZM26.8706 48.3941C26.4251 48.3122 26.1026 47.8924 26.1026 47.3957V46.8735C26.1026 46.3154 26.5122 45.8649 27.019 45.8649H30.9717L30.6542 47.0936C30.6133 47.2319 30.557 47.3497 30.4802 47.4469L29.3589 48.8447L26.8706 48.3941ZM39.133 70.0005C39.133 70.6149 38.6363 71.1167 38.0219 71.1167H31.8421C31.2277 71.1167 30.7259 70.6149 30.7259 70.0005V66.7032H39.1278V70.0005H39.133ZM66.2792 70.0005C66.2792 70.6149 65.7774 71.1167 65.163 71.1167H58.9832C58.3688 71.1167 57.8722 70.6149 57.8722 70.0005V66.7032H66.2741V70.0005H66.2792ZM69.428 53.6165C69.7198 53.98 69.8786 54.446 69.8786 54.917V62.1516C69.8786 63.7797 68.6446 65.1058 67.0779 65.1058H29.9272C29.9272 65.1058 29.9118 65.1058 29.9016 65.1058C29.8914 65.1058 29.8862 65.1058 29.876 65.1058C28.3605 65.1058 27.1214 63.7797 27.1214 62.1516V54.9221C27.1214 54.446 27.2802 53.9852 27.572 53.6216L31.1816 49.1212H65.8235L69.428 53.6165ZM70.9077 47.3957C70.9077 47.8924 70.5851 48.3122 70.1397 48.3941L67.6514 48.8447L66.525 47.4367C66.4533 47.3548 66.397 47.237 66.3611 47.1039L66.0386 45.8597H69.9912C70.493 45.8597 70.9077 46.3103 70.9077 46.8684V47.3906V47.3957Z" fill="white"/>
</g>
<defs>
<clipPath id="clip0_43_3498">
<rect width="48" height="49.4387" fill="white" transform="translate(24.5 23.2808)"/>
</clipPath>
</defs>
</svg>
