<svg width="19" height="18" viewBox="0 0 19 18" fill="none" xmlns="http://www.w3.org/2000/svg">
<path d="M10.5408 8.55942V5.80773C10.5408 5.51284 10.441 5.26566 10.2415 5.06619C10.0421 4.8667 9.79488 4.76696 9.5 4.76696C9.20512 4.76696 8.95794 4.8667 8.75845 5.06619C8.55897 5.26566 8.45923 5.51284 8.45923 5.80773V8.94212C8.45923 9.09707 8.48676 9.24266 8.54184 9.3789C8.59691 9.51514 8.67952 9.63775 8.78967 9.74674L11.4294 12.3864C11.6272 12.5843 11.8681 12.6833 12.1518 12.6833C12.4356 12.6833 12.6805 12.5843 12.8864 12.3864C13.0924 12.1885 13.1954 11.9437 13.1954 11.6518C13.1954 11.36 13.0924 11.1111 12.8864 10.9051L10.5408 8.55942ZM9.5 18C8.24735 18 7.07441 17.7641 5.98118 17.2924C4.88793 16.8207 3.93696 16.1804 3.12826 15.3717C2.31956 14.563 1.67934 13.6121 1.2076 12.5188C0.735868 11.4256 0.5 10.2526 0.5 9C0.5 7.74735 0.735868 6.57441 1.2076 5.48118C1.67934 4.38793 2.31956 3.43696 3.12826 2.62827C3.93696 1.81956 4.88793 1.17934 5.98118 0.707604C7.07441 0.235868 8.24735 0 9.5 0C10.7526 0 11.9256 0.235868 13.0188 0.707604C14.1121 1.17934 15.063 1.81956 15.8717 2.62827C16.6804 3.43696 17.3207 4.38793 17.7924 5.48118C18.2641 6.57441 18.5 7.74735 18.5 9C18.5 10.2526 18.2641 11.4256 17.7924 12.5188C17.3207 13.6121 16.6804 14.563 15.8717 15.3717C15.063 16.1804 14.1121 16.8207 13.0188 17.2924C11.9256 17.7641 10.7526 18 9.5 18ZM9.49989 15.7243C11.3631 15.7243 12.9496 15.0714 14.2595 13.7655C15.5694 12.4597 16.2243 10.8712 16.2243 9C16.2243 7.12882 15.5694 5.5403 14.2596 4.23446C12.9498 2.92861 11.3633 2.27569 9.50011 2.27569C7.63694 2.27569 6.05041 2.92861 4.74053 4.23446C3.43064 5.5403 2.77569 7.12882 2.77569 9C2.77569 10.8712 3.4306 12.4597 4.74042 13.7655C6.05023 15.0714 7.63672 15.7243 9.49989 15.7243Z" fill="#F79734"/>
</svg>
